<svg xmlns="http://www.w3.org/2000/svg" xmlns:xlink="http://www.w3.org/1999/xlink" width="43" viewBox="0 0 32.25 32.249998" height="43" preserveAspectRatio="xMidYMid meet"><defs><clipPath id="3227ee1f25"><path d="M 0 0 L 31.515625 0 L 31.515625 31.515625 L 0 31.515625 Z M 0 0 " clip-rule="nonzero"></path></clipPath><clipPath id="44b75c7bd3"><path d="M 0 0 L 31.222656 0 L 31.222656 31.515625 L 0 31.515625 Z M 0 0 " clip-rule="nonzero"></path></clipPath></defs><g clip-path="url(#3227ee1f25)"><path fill="#ffffff" d="M 0 0 L 32.25 0 L 32.25 39.578125 L 0 39.578125 Z M 0 0 " fill-opacity="1" fill-rule="nonzero"></path><path fill="#ffffff" d="M 0 0 L 31.515625 0 L 31.515625 31.515625 L 0 31.515625 Z M 0 0 " fill-opacity="1" fill-rule="nonzero"></path><path fill="#00c2cb" d="M 0 0 L 31.515625 0 L 31.515625 31.515625 L 0 31.515625 Z M 0 0 " fill-opacity="1" fill-rule="nonzero"></path></g><g clip-path="url(#44b75c7bd3)"><path fill="#00c2cb" d="M 26.183594 31.738281 L 4.011719 31.738281 C 1.242188 31.738281 -1.027344 29.46875 -1.027344 26.699219 L -1.027344 4.527344 C -1.027344 1.753906 1.242188 -0.511719 4.011719 -0.511719 L 26.183594 -0.511719 C 28.957031 -0.511719 31.222656 1.753906 31.222656 4.527344 L 31.222656 26.699219 C 31.222656 29.46875 28.957031 31.738281 26.183594 31.738281 Z M 26.183594 31.738281 " fill-opacity="1" fill-rule="nonzero"></path></g><path fill="#fffffe" d="M 23.074219 26.476562 L 8.761719 26.476562 C 7.90625 26.476562 7.207031 25.777344 7.207031 24.921875 L 7.207031 8.304688 C 7.207031 7.449219 7.90625 6.75 8.761719 6.75 L 23.074219 6.75 C 23.929688 6.75 24.628906 7.449219 24.628906 8.304688 L 24.628906 24.921875 C 24.628906 25.777344 23.9375 26.476562 23.074219 26.476562 Z M 8.761719 7.152344 C 8.125 7.152344 7.601562 7.667969 7.601562 8.3125 L 7.601562 24.929688 C 7.601562 25.5625 8.121094 26.085938 8.761719 26.085938 L 23.074219 26.085938 C 23.710938 26.085938 24.230469 25.570312 24.230469 24.929688 L 24.230469 8.304688 C 24.230469 7.667969 23.714844 7.144531 23.074219 7.144531 Z M 8.761719 7.152344 " fill-opacity="1" fill-rule="nonzero"></path><path fill="#fffffe" d="M 7.40625 17.90625 C 7.34375 17.90625 7.289062 17.878906 7.25 17.824219 L 5.683594 15.679688 C 5.179688 14.988281 5.324219 14.019531 6.015625 13.507812 L 7.292969 12.570312 C 7.382812 12.507812 7.507812 12.527344 7.570312 12.613281 C 7.632812 12.703125 7.617188 12.828125 7.527344 12.890625 L 6.25 13.828125 C 5.734375 14.207031 5.625 14.933594 5.996094 15.449219 L 7.566406 17.589844 C 7.628906 17.679688 7.609375 17.804688 7.519531 17.867188 C 7.488281 17.890625 7.453125 17.90625 7.40625 17.90625 Z M 7.40625 17.90625 " fill-opacity="1" fill-rule="nonzero"></path><path fill="#fffffe" d="M 20.636719 7.152344 C 20.574219 7.152344 20.515625 7.128906 20.476562 7.070312 L 19.414062 5.617188 C 19.035156 5.097656 18.3125 4.992188 17.792969 5.363281 L 15.414062 7.109375 C 15.324219 7.171875 15.199219 7.152344 15.136719 7.0625 C 15.074219 6.976562 15.09375 6.851562 15.179688 6.789062 L 17.5625 5.042969 C 18.253906 4.539062 19.230469 4.683594 19.734375 5.375 L 20.800781 6.832031 C 20.863281 6.917969 20.84375 7.046875 20.753906 7.109375 C 20.71875 7.140625 20.671875 7.152344 20.636719 7.152344 Z M 20.636719 7.152344 " fill-opacity="1" fill-rule="nonzero"></path><path fill="#fffffe" d="M 11.917969 10.25 C 12.113281 10.316406 12.265625 10.410156 12.359375 10.542969 C 12.460938 10.671875 12.503906 10.832031 12.503906 11.007812 C 12.503906 11.183594 12.460938 11.339844 12.371094 11.492188 C 12.285156 11.636719 12.15625 11.746094 11.992188 11.8125 C 11.828125 11.882812 11.609375 11.914062 11.332031 11.914062 L 10.128906 11.914062 L 10.128906 8.777344 L 11.308594 8.777344 C 11.683594 8.777344 11.957031 8.859375 12.113281 9.023438 C 12.269531 9.1875 12.347656 9.371094 12.347656 9.578125 C 12.347656 9.714844 12.308594 9.84375 12.238281 9.957031 C 12.167969 10.082031 12.0625 10.175781 11.917969 10.25 Z M 10.550781 10.101562 L 11.230469 10.101562 C 11.371094 10.101562 11.488281 10.09375 11.585938 10.074219 C 11.679688 10.0625 11.761719 10.019531 11.835938 9.949219 C 11.910156 9.878906 11.941406 9.777344 11.941406 9.632812 C 11.941406 9.484375 11.90625 9.375 11.835938 9.308594 C 11.761719 9.238281 11.671875 9.195312 11.570312 9.175781 C 11.472656 9.160156 11.339844 9.148438 11.179688 9.148438 L 10.550781 9.148438 Z M 10.550781 11.550781 L 11.332031 11.550781 C 11.609375 11.550781 11.804688 11.5 11.910156 11.40625 C 12.019531 11.308594 12.074219 11.175781 12.074219 11.007812 C 12.074219 10.835938 12.019531 10.707031 11.898438 10.609375 C 11.785156 10.515625 11.578125 10.464844 11.277344 10.464844 L 10.542969 10.464844 Z M 10.550781 11.550781 " fill-opacity="1" fill-rule="nonzero"></path><path fill="#fffffe" d="M 15.023438 11.921875 L 13.058594 11.921875 L 13.058594 8.785156 L 13.472656 8.785156 L 13.472656 11.550781 L 15.023438 11.550781 Z M 15.023438 11.921875 " fill-opacity="1" fill-rule="nonzero"></path><path fill="#fffffe" d="M 16.882812 8.726562 C 17.324219 8.726562 17.679688 8.878906 17.957031 9.175781 C 18.234375 9.46875 18.378906 9.867188 18.378906 10.351562 C 18.378906 10.835938 18.242188 11.226562 17.957031 11.523438 C 17.675781 11.820312 17.316406 11.964844 16.882812 11.964844 C 16.429688 11.964844 16.0625 11.8125 15.792969 11.503906 C 15.515625 11.195312 15.375 10.824219 15.375 10.382812 C 15.375 9.867188 15.515625 9.464844 15.792969 9.167969 C 16.074219 8.878906 16.433594 8.726562 16.882812 8.726562 Z M 16.875 11.617188 C 17.195312 11.617188 17.449219 11.503906 17.648438 11.285156 C 17.84375 11.0625 17.945312 10.753906 17.945312 10.359375 C 17.945312 9.949219 17.84375 9.632812 17.644531 9.421875 C 17.441406 9.199219 17.191406 9.09375 16.882812 9.09375 C 16.566406 9.09375 16.308594 9.199219 16.105469 9.414062 C 15.90625 9.628906 15.804688 9.960938 15.804688 10.402344 C 15.804688 10.769531 15.90625 11.058594 16.101562 11.285156 C 16.300781 11.503906 16.558594 11.617188 16.875 11.617188 Z M 16.875 11.617188 " fill-opacity="1" fill-rule="nonzero"></path><path fill="#fffffe" d="M 21.707031 11.480469 C 21.308594 11.808594 20.882812 11.972656 20.410156 11.972656 C 19.929688 11.972656 19.539062 11.828125 19.242188 11.53125 C 18.949219 11.234375 18.800781 10.851562 18.800781 10.359375 C 18.800781 10.0625 18.867188 9.785156 18.984375 9.527344 C 19.105469 9.269531 19.28125 9.074219 19.519531 8.933594 C 19.753906 8.796875 20.042969 8.726562 20.382812 8.726562 C 20.734375 8.726562 21.019531 8.804688 21.234375 8.960938 C 21.449219 9.117188 21.59375 9.34375 21.664062 9.660156 L 21.289062 9.765625 C 21.234375 9.539062 21.125 9.371094 20.976562 9.257812 C 20.824219 9.144531 20.628906 9.085938 20.382812 9.085938 C 20.003906 9.085938 19.722656 9.199219 19.527344 9.433594 C 19.332031 9.664062 19.238281 9.96875 19.238281 10.339844 C 19.238281 10.617188 19.28125 10.851562 19.375 11.039062 C 19.46875 11.222656 19.609375 11.367188 19.792969 11.460938 C 19.972656 11.554688 20.175781 11.605469 20.390625 11.605469 C 20.71875 11.605469 21.027344 11.5 21.304688 11.285156 L 21.304688 10.707031 L 20.378906 10.707031 L 20.378906 10.320312 L 21.707031 10.320312 Z M 21.707031 11.480469 " fill-opacity="1" fill-rule="nonzero"></path><path fill="#fffffe" d="M 13.863281 19.730469 L 10.136719 19.730469 C 10.027344 19.730469 9.933594 19.644531 9.933594 19.53125 L 9.933594 14.363281 C 9.933594 14.257812 10.023438 14.164062 10.136719 14.164062 L 13.863281 14.164062 C 13.972656 14.164062 14.066406 14.25 14.066406 14.363281 L 14.066406 19.53125 C 14.058594 19.636719 13.972656 19.730469 13.863281 19.730469 Z M 10.332031 19.335938 L 13.664062 19.335938 L 13.664062 14.566406 L 10.332031 14.566406 Z M 10.332031 19.335938 " fill-opacity="1" fill-rule="nonzero"></path><path fill="#fffffe" d="M 21.707031 22.214844 L 10.136719 22.214844 C 10.027344 22.214844 9.933594 22.125 9.933594 22.011719 C 9.933594 21.898438 10.023438 21.808594 10.136719 21.808594 L 21.707031 21.808594 C 21.8125 21.808594 21.90625 21.898438 21.90625 22.011719 C 21.90625 22.125 21.820312 22.214844 21.707031 22.214844 Z M 21.707031 22.214844 " fill-opacity="1" fill-rule="nonzero"></path><path fill="#fffffe" d="M 16.96875 24.699219 L 10.136719 24.699219 C 10.027344 24.699219 9.933594 24.613281 9.933594 24.5 C 9.933594 24.386719 10.023438 24.296875 10.136719 24.296875 L 16.96875 24.296875 C 17.078125 24.296875 17.171875 24.386719 17.171875 24.5 C 17.171875 24.613281 17.082031 24.699219 16.96875 24.699219 Z M 16.96875 24.699219 " fill-opacity="1" fill-rule="nonzero"></path><path fill="#fffffe" d="M 21.707031 24.699219 L 18.386719 24.699219 C 18.28125 24.699219 18.183594 24.613281 18.183594 24.5 C 18.183594 24.386719 18.273438 24.296875 18.386719 24.296875 L 21.707031 24.296875 C 21.8125 24.296875 21.90625 24.386719 21.90625 24.5 C 21.90625 24.613281 21.820312 24.699219 21.707031 24.699219 Z M 21.707031 24.699219 " fill-opacity="1" fill-rule="nonzero"></path><path fill="#fffffe" d="M 21.707031 14.753906 L 15.9375 14.753906 C 15.828125 14.753906 15.734375 14.667969 15.734375 14.554688 C 15.734375 14.445312 15.824219 14.351562 15.9375 14.351562 L 21.707031 14.351562 C 21.8125 14.351562 21.90625 14.441406 21.90625 14.554688 C 21.90625 14.667969 21.820312 14.753906 21.707031 14.753906 Z M 21.707031 14.753906 " fill-opacity="1" fill-rule="nonzero"></path><path fill="#fffffe" d="M 21.707031 17.242188 L 15.9375 17.242188 C 15.828125 17.242188 15.734375 17.15625 15.734375 17.042969 C 15.734375 16.929688 15.824219 16.839844 15.9375 16.839844 L 21.707031 16.839844 C 21.8125 16.839844 21.90625 16.929688 21.90625 17.042969 C 21.90625 17.15625 21.820312 17.242188 21.707031 17.242188 Z M 21.707031 17.242188 " fill-opacity="1" fill-rule="nonzero"></path><path fill="#fffffe" d="M 21.707031 19.730469 L 15.9375 19.730469 C 15.828125 19.730469 15.734375 19.644531 15.734375 19.53125 C 15.734375 19.421875 15.824219 19.328125 15.9375 19.328125 L 21.707031 19.328125 C 21.8125 19.328125 21.90625 19.417969 21.90625 19.53125 C 21.90625 19.636719 21.820312 19.730469 21.707031 19.730469 Z M 21.707031 19.730469 " fill-opacity="1" fill-rule="nonzero"></path></svg>