<svg xmlns="http://www.w3.org/2000/svg" xmlns:xlink="http://www.w3.org/1999/xlink" width="43" viewBox="0 0 32.25 32.249998" height="43" preserveAspectRatio="xMidYMid meet"><defs><clipPath id="e038230b68"><path d="M 0 0 L 31.515625 0 L 31.515625 31.515625 L 0 31.515625 Z M 0 0 " clip-rule="nonzero"></path></clipPath><clipPath id="c24b8c07a1"><path d="M 5.152344 5.152344 L 26.410156 5.152344 L 26.410156 26.410156 L 5.152344 26.410156 Z M 5.152344 5.152344 " clip-rule="nonzero"></path></clipPath></defs><g clip-path="url(#e038230b68)"><path fill="#ffffff" d="M 0 0 L 31.515625 0 L 31.515625 31.515625 L 0 31.515625 Z M 0 0 " fill-opacity="1" fill-rule="nonzero"></path><path fill="#737373" d="M 0 0 L 31.515625 0 L 31.515625 31.515625 L 0 31.515625 Z M 0 0 " fill-opacity="1" fill-rule="nonzero"></path></g><g clip-path="url(#c24b8c07a1)"><path fill="#ffffff" d="M 15.78125 5.15625 C 18.714844 5.15625 21.371094 6.34375 23.292969 8.269531 C 25.21875 10.191406 26.40625 12.847656 26.40625 15.78125 C 26.40625 18.71875 25.21875 21.375 23.292969 23.296875 C 21.371094 25.222656 18.714844 26.410156 15.78125 26.410156 C 12.84375 26.410156 10.1875 25.222656 8.265625 23.296875 C 6.339844 21.375 5.152344 18.71875 5.152344 15.78125 C 5.152344 12.847656 6.339844 10.191406 8.265625 8.269531 C 10.1875 6.34375 12.84375 5.15625 15.78125 5.15625 Z M 22.878906 8.6875 C 21.0625 6.867188 18.550781 5.746094 15.78125 5.746094 C 13.007812 5.746094 10.5 6.867188 8.683594 8.6875 C 6.867188 10.503906 5.742188 13.011719 5.742188 15.78125 C 5.742188 18.554688 6.867188 21.0625 8.683594 22.878906 C 10.5 24.699219 13.007812 25.820312 15.78125 25.820312 C 18.550781 25.820312 21.0625 24.699219 22.878906 22.878906 C 24.695312 21.0625 25.816406 18.554688 25.816406 15.78125 C 25.816406 13.011719 24.695312 10.503906 22.878906 8.6875 Z M 22.878906 8.6875 " fill-opacity="1" fill-rule="nonzero"></path></g><path fill="#ffffff" d="M 19.226562 19.898438 L 19.226562 20.890625 C 19.226562 21.191406 18.933594 21.4375 18.574219 21.4375 L 9.789062 21.4375 C 9.433594 21.4375 9.136719 21.191406 9.136719 20.890625 L 9.136719 9.726562 C 9.136719 9.429688 9.429688 9.183594 9.789062 9.183594 L 18.574219 9.183594 C 18.933594 9.183594 19.226562 9.429688 19.226562 9.726562 L 19.226562 16.109375 C 18.363281 15.566406 17.210938 15.671875 16.460938 16.421875 C 15.585938 17.296875 15.585938 18.710938 16.460938 19.582031 C 17.210938 20.335938 18.363281 20.441406 19.226562 19.898438 Z M 10.261719 19.707031 C 10.195312 19.707031 10.140625 19.761719 10.140625 19.828125 C 10.140625 19.894531 10.195312 19.945312 10.261719 19.945312 L 15.359375 19.945312 C 15.425781 19.945312 15.480469 19.894531 15.480469 19.828125 C 15.480469 19.761719 15.425781 19.707031 15.359375 19.707031 Z M 10.261719 18.484375 C 10.195312 18.484375 10.140625 18.535156 10.140625 18.601562 C 10.140625 18.667969 10.195312 18.71875 10.261719 18.71875 L 15.359375 18.71875 C 15.425781 18.71875 15.480469 18.667969 15.480469 18.601562 C 15.480469 18.535156 15.425781 18.484375 15.359375 18.484375 Z M 10.261719 17.257812 C 10.195312 17.257812 10.140625 17.3125 10.140625 17.375 C 10.140625 17.441406 10.195312 17.496094 10.261719 17.496094 L 15.359375 17.496094 C 15.425781 17.496094 15.480469 17.441406 15.480469 17.375 C 15.480469 17.3125 15.425781 17.257812 15.359375 17.257812 Z M 10.261719 16.03125 C 10.195312 16.03125 10.140625 16.085938 10.140625 16.152344 C 10.140625 16.214844 10.195312 16.269531 10.261719 16.269531 L 15.359375 16.269531 C 15.425781 16.269531 15.480469 16.214844 15.480469 16.152344 C 15.480469 16.085938 15.425781 16.03125 15.359375 16.03125 Z M 17.433594 14.554688 L 18.203125 14.554688 L 18.203125 9.714844 L 17.433594 9.714844 Z M 16.167969 14.554688 L 16.9375 14.554688 L 16.9375 10.820312 L 16.167969 10.820312 Z M 14.898438 14.554688 L 15.667969 14.554688 L 15.667969 11.675781 L 14.898438 11.675781 Z M 12.304688 11.945312 L 14.074219 11.945312 C 14.074219 11.492188 13.898438 11.042969 13.554688 10.695312 C 13.210938 10.351562 12.757812 10.179688 12.304688 10.179688 Z M 13.699219 12.320312 L 11.929688 12.320312 L 11.929688 10.550781 C 11.476562 10.550781 11.023438 10.722656 10.679688 11.070312 C 9.988281 11.757812 9.988281 12.878906 10.679688 13.570312 C 11.371094 14.261719 12.492188 14.261719 13.179688 13.570312 C 13.527344 13.226562 13.699219 12.773438 13.699219 12.320312 Z M 13.699219 12.320312 " fill-opacity="1" fill-rule="evenodd"></path><path fill="#ffffff" d="M 16.628906 16.589844 C 17.410156 15.808594 18.675781 15.808594 19.453125 16.589844 C 20.234375 17.371094 20.234375 18.636719 19.453125 19.414062 C 18.671875 20.195312 17.410156 20.195312 16.628906 19.414062 C 15.847656 18.636719 15.847656 17.371094 16.628906 16.589844 Z M 17.140625 17.101562 C 16.640625 17.601562 16.640625 18.40625 17.140625 18.90625 C 17.636719 19.402344 18.445312 19.402344 18.941406 18.90625 C 19.441406 18.40625 19.441406 17.601562 18.941406 17.101562 C 18.445312 16.601562 17.636719 16.601562 17.140625 17.101562 Z M 17.140625 17.101562 " fill-opacity="1" fill-rule="evenodd"></path><path fill="#ffffff" d="M 19.144531 19.667969 L 19.707031 19.105469 L 20.230469 19.632812 L 19.667969 20.191406 Z M 19.144531 19.667969 " fill-opacity="1" fill-rule="evenodd"></path><path fill="#ffffff" d="M 22.253906 22.21875 C 22.476562 21.996094 22.476562 21.628906 22.253906 21.40625 L 20.355469 19.507812 L 19.542969 20.316406 L 21.445312 22.21875 C 21.667969 22.441406 22.03125 22.441406 22.253906 22.21875 Z M 22.253906 22.21875 " fill-opacity="1" fill-rule="evenodd"></path></svg>