<svg xmlns="http://www.w3.org/2000/svg" xmlns:xlink="http://www.w3.org/1999/xlink" width="43" viewBox="0 0 32.25 32.249998" height="43" preserveAspectRatio="xMidYMid meet"><defs><clipPath id="c190f1b94f"><path d="M 0 0 L 31.515625 0 L 31.515625 31.515625 L 0 31.515625 Z M 0 0 " clip-rule="nonzero"></path></clipPath><clipPath id="a98b4209cd"><path d="M 3.71875 5.554688 L 27.90625 5.554688 L 27.90625 26.074219 L 3.71875 26.074219 Z M 3.71875 5.554688 " clip-rule="nonzero"></path></clipPath></defs><g clip-path="url(#c190f1b94f)"><path fill="#ffffff" d="M 0 0 L 31.515625 0 L 31.515625 31.515625 L 0 31.515625 Z M 0 0 " fill-opacity="1" fill-rule="nonzero"></path><path fill="#03989e" d="M 0 0 L 31.515625 0 L 31.515625 31.515625 L 0 31.515625 Z M 0 0 " fill-opacity="1" fill-rule="nonzero"></path></g><g clip-path="url(#a98b4209cd)"><path fill="#ffffff" d="M 27.625 18.484375 L 25.257812 17.117188 C 25.296875 16.902344 25.324219 16.6875 25.34375 16.46875 C 25.34375 16.460938 25.34375 16.453125 25.34375 16.441406 C 25.359375 16.234375 25.371094 16.023438 25.371094 15.808594 C 25.371094 15.59375 25.359375 15.386719 25.34375 15.179688 C 25.34375 15.167969 25.34375 15.160156 25.34375 15.148438 C 25.324219 14.929688 25.296875 14.714844 25.257812 14.503906 L 27.625 13.132812 C 27.726562 13.074219 27.792969 12.992188 27.820312 12.878906 C 27.851562 12.769531 27.835938 12.660156 27.78125 12.5625 L 25.632812 8.832031 C 25.554688 8.691406 25.433594 8.621094 25.269531 8.621094 C 25.195312 8.621094 25.125 8.640625 25.0625 8.679688 L 22.683594 10.046875 C 22.351562 9.769531 22 9.519531 21.625 9.300781 L 21.585938 9.28125 C 21.410156 9.179688 21.230469 9.085938 21.050781 9 C 21.03125 8.988281 21.007812 8.980469 20.988281 8.972656 C 20.804688 8.886719 20.617188 8.808594 20.425781 8.738281 L 20.425781 6 C 20.425781 5.886719 20.382812 5.785156 20.300781 5.707031 C 20.222656 5.625 20.121094 5.582031 20.007812 5.582031 L 15.703125 5.582031 C 15.585938 5.582031 15.488281 5.625 15.40625 5.707031 C 15.324219 5.785156 15.285156 5.886719 15.285156 6 L 15.285156 8.734375 C 15.09375 8.804688 14.90625 8.882812 14.722656 8.96875 L 14.660156 8.996094 C 14.476562 9.082031 14.300781 9.175781 14.125 9.277344 L 14.085938 9.300781 C 13.710938 9.519531 13.359375 9.769531 13.027344 10.046875 L 10.652344 8.679688 C 10.589844 8.640625 10.519531 8.621094 10.445312 8.621094 C 10.285156 8.621094 10.160156 8.691406 10.082031 8.832031 L 7.929688 12.5625 C 7.871094 12.660156 7.859375 12.769531 7.886719 12.878906 C 7.917969 12.992188 7.984375 13.074219 8.082031 13.132812 L 10.445312 14.503906 C 10.40625 14.714844 10.378906 14.929688 10.359375 15.148438 C 10.359375 15.160156 10.359375 15.167969 10.359375 15.179688 C 10.34375 15.386719 10.332031 15.597656 10.332031 15.808594 C 10.332031 15.851562 10.332031 15.890625 10.332031 15.933594 L 4.136719 15.933594 C 4.019531 15.933594 3.921875 15.972656 3.839844 16.054688 C 3.757812 16.136719 3.714844 16.238281 3.71875 16.351562 L 3.71875 23.710938 C 3.714844 23.824219 3.757812 23.925781 3.839844 24.007812 C 3.921875 24.089844 4.019531 24.128906 4.136719 24.128906 L 15.292969 24.128906 L 15.292969 25.621094 C 15.289062 25.738281 15.332031 25.835938 15.414062 25.921875 C 15.496094 26.003906 15.59375 26.042969 15.710938 26.042969 L 20.011719 26.042969 C 20.128906 26.042969 20.226562 26.003906 20.308594 25.921875 C 20.390625 25.835938 20.433594 25.738281 20.433594 25.621094 L 20.433594 22.882812 C 20.625 22.8125 20.8125 22.730469 20.996094 22.648438 L 21.054688 22.621094 C 21.238281 22.535156 21.417969 22.441406 21.589844 22.339844 L 21.628906 22.316406 C 22.003906 22.097656 22.359375 21.851562 22.691406 21.570312 L 25.0625 22.941406 C 25.164062 23 25.269531 23.015625 25.382812 22.984375 C 25.492188 22.953125 25.578125 22.890625 25.632812 22.789062 L 27.785156 19.058594 C 27.84375 18.960938 27.855469 18.855469 27.828125 18.742188 C 27.796875 18.628906 27.730469 18.542969 27.632812 18.488281 Z M 20.671875 21.871094 C 20.511719 21.945312 20.347656 22.015625 20.183594 22.078125 C 20.152344 22.089844 20.121094 22.097656 20.089844 22.109375 C 19.503906 22.320312 18.902344 22.441406 18.28125 22.480469 L 18.28125 20.820312 C 18.601562 20.792969 18.917969 20.734375 19.230469 20.644531 C 19.542969 20.554688 19.839844 20.4375 20.128906 20.292969 C 20.417969 20.144531 20.691406 19.972656 20.945312 19.773438 C 21.199219 19.570312 21.433594 19.351562 21.644531 19.105469 C 21.859375 18.859375 22.042969 18.597656 22.207031 18.316406 C 22.367188 18.035156 22.5 17.742188 22.605469 17.4375 C 22.710938 17.128906 22.785156 16.816406 22.828125 16.496094 C 22.871094 16.171875 22.882812 15.851562 22.867188 15.527344 C 22.847656 15.203125 22.796875 14.886719 22.71875 14.570312 C 22.640625 14.257812 22.53125 13.953125 22.390625 13.660156 C 22.253906 13.367188 22.085938 13.09375 21.894531 12.832031 C 21.703125 12.570312 21.488281 12.332031 21.25 12.113281 C 21.011719 11.890625 20.753906 11.699219 20.480469 11.527344 C 20.203125 11.359375 19.914062 11.21875 19.609375 11.105469 C 19.308594 10.992188 18.996094 10.90625 18.675781 10.855469 C 18.355469 10.800781 18.035156 10.78125 17.710938 10.789062 C 17.390625 10.796875 17.070312 10.835938 16.753906 10.910156 C 16.4375 10.980469 16.132812 11.078125 15.835938 11.210938 C 15.539062 11.339844 15.257812 11.496094 14.992188 11.683594 C 14.726562 11.867188 14.480469 12.074219 14.253906 12.308594 C 14.027344 12.539062 13.828125 12.792969 13.648438 13.0625 C 13.472656 13.332031 13.324219 13.621094 13.203125 13.917969 C 13.078125 14.21875 12.988281 14.527344 12.925781 14.847656 C 12.863281 15.164062 12.832031 15.484375 12.832031 15.808594 C 12.832031 15.851562 12.832031 15.890625 12.832031 15.933594 L 11.175781 15.933594 C 11.175781 15.890625 11.175781 15.851562 11.175781 15.808594 C 11.175781 15.605469 11.191406 15.40625 11.207031 15.207031 C 11.207031 15.160156 11.214844 15.113281 11.222656 15.066406 C 11.238281 14.910156 11.265625 14.753906 11.292969 14.601562 C 11.304688 14.527344 11.316406 14.457031 11.332031 14.386719 C 11.644531 12.960938 12.347656 11.765625 13.445312 10.800781 C 13.546875 10.714844 13.652344 10.625 13.761719 10.539062 C 13.84375 10.472656 13.925781 10.40625 14.011719 10.351562 L 14.191406 10.226562 C 14.324219 10.136719 14.46875 10.050781 14.613281 9.964844 C 14.652344 9.941406 14.695312 9.917969 14.734375 9.898438 C 14.894531 9.8125 15.054688 9.734375 15.222656 9.664062 L 15.316406 9.625 C 16.128906 9.285156 16.976562 9.117188 17.855469 9.117188 C 18.734375 9.117188 19.582031 9.285156 20.394531 9.625 L 20.488281 9.664062 C 20.652344 9.734375 20.816406 9.8125 20.972656 9.894531 L 21.097656 9.964844 C 21.242188 10.042969 21.382812 10.132812 21.519531 10.226562 C 21.582031 10.269531 21.640625 10.308594 21.699219 10.351562 C 21.78125 10.410156 21.863281 10.472656 21.945312 10.535156 C 22.054688 10.621094 22.160156 10.710938 22.265625 10.800781 C 23.363281 11.761719 24.066406 12.957031 24.378906 14.382812 C 24.394531 14.453125 24.40625 14.523438 24.421875 14.59375 C 24.449219 14.75 24.472656 14.90625 24.492188 15.0625 C 24.492188 15.109375 24.5 15.15625 24.503906 15.203125 C 24.523438 15.398438 24.535156 15.59375 24.535156 15.804688 C 24.535156 16.011719 24.523438 16.1875 24.507812 16.375 C 24.507812 16.417969 24.507812 16.464844 24.496094 16.503906 C 24.480469 16.660156 24.457031 16.816406 24.429688 16.96875 C 24.414062 17.042969 24.402344 17.121094 24.386719 17.199219 C 24.085938 18.597656 23.410156 19.777344 22.351562 20.742188 C 22.277344 20.8125 22.199219 20.875 22.125 20.941406 C 22.070312 20.984375 22.019531 21.027344 21.964844 21.074219 C 21.863281 21.152344 21.761719 21.226562 21.660156 21.300781 C 21.558594 21.371094 21.46875 21.429688 21.371094 21.492188 C 21.324219 21.523438 21.273438 21.554688 21.222656 21.582031 C 21.082031 21.671875 20.933594 21.75 20.78125 21.820312 Z M 18.28125 19.976562 L 18.28125 16.351562 C 18.28125 16.238281 18.238281 16.136719 18.15625 16.054688 C 18.074219 15.972656 17.976562 15.933594 17.859375 15.933594 L 13.671875 15.933594 C 13.671875 15.890625 13.671875 15.851562 13.671875 15.808594 C 13.671875 15.265625 13.773438 14.742188 13.976562 14.238281 C 14.179688 13.734375 14.472656 13.289062 14.847656 12.898438 C 15.226562 12.507812 15.664062 12.203125 16.160156 11.980469 C 16.65625 11.761719 17.175781 11.640625 17.71875 11.625 C 18.257812 11.605469 18.785156 11.6875 19.296875 11.875 C 19.804688 12.0625 20.261719 12.339844 20.664062 12.703125 C 21.066406 13.066406 21.386719 13.496094 21.625 13.984375 C 21.859375 14.472656 21.996094 14.988281 22.03125 15.53125 C 22.070312 16.070312 22.003906 16.601562 21.832031 17.117188 C 21.664062 17.632812 21.402344 18.097656 21.054688 18.515625 C 20.703125 18.929688 20.285156 19.261719 19.804688 19.515625 C 19.324219 19.769531 18.816406 19.921875 18.277344 19.976562 Z M 12.394531 10.652344 C 11.578125 11.511719 10.996094 12.511719 10.652344 13.648438 L 8.867188 12.617188 L 10.597656 9.613281 Z M 17.441406 16.773438 L 17.441406 23.285156 L 4.554688 23.285156 L 4.554688 16.773438 Z M 18.28125 23.324219 C 18.722656 23.300781 19.160156 23.234375 19.59375 23.132812 L 19.59375 25.199219 L 16.125 25.199219 L 16.125 24.125 L 17.855469 24.125 C 17.972656 24.125 18.070312 24.085938 18.152344 24.003906 C 18.234375 23.921875 18.273438 23.820312 18.273438 23.707031 Z M 25.058594 13.648438 C 24.714844 12.511719 24.136719 11.511719 23.320312 10.648438 L 25.109375 9.613281 L 26.839844 12.617188 Z M 26.84375 19.003906 L 25.109375 22 L 23.316406 20.964844 C 24.132812 20.105469 24.714844 19.105469 25.058594 17.96875 Z M 16.125 8.496094 L 16.125 6.421875 L 19.585938 6.421875 L 19.585938 8.488281 C 18.433594 8.210938 17.277344 8.210938 16.125 8.488281 Z M 16.125 8.496094 " fill-opacity="1" fill-rule="nonzero"></path></g><path fill="#ffffff" d="M 13.75 21.585938 C 13.628906 21.582031 13.527344 21.617188 13.4375 21.703125 C 13.351562 21.785156 13.308594 21.886719 13.308594 22.007812 C 13.308594 22.128906 13.351562 22.230469 13.4375 22.3125 C 13.527344 22.394531 13.628906 22.433594 13.75 22.425781 L 15.890625 22.425781 C 16.128906 22.425781 16.335938 22.339844 16.503906 22.171875 C 16.671875 22.003906 16.757812 21.796875 16.757812 21.558594 L 16.757812 20.480469 C 16.757812 20.238281 16.671875 20.035156 16.503906 19.863281 C 16.335938 19.695312 16.128906 19.609375 15.890625 19.609375 L 14.167969 19.578125 L 14.199219 18.46875 L 16.339844 18.46875 C 16.449219 18.464844 16.542969 18.417969 16.621094 18.339844 C 16.699219 18.257812 16.734375 18.160156 16.734375 18.050781 C 16.734375 17.9375 16.699219 17.84375 16.621094 17.761719 C 16.542969 17.679688 16.449219 17.636719 16.339844 17.628906 L 14.199219 17.628906 C 13.960938 17.628906 13.753906 17.714844 13.585938 17.882812 C 13.414062 18.054688 13.332031 18.257812 13.332031 18.5 L 13.332031 19.578125 C 13.332031 19.816406 13.414062 20.023438 13.585938 20.191406 C 13.753906 20.363281 13.960938 20.449219 14.199219 20.449219 L 15.917969 20.480469 L 15.890625 21.585938 Z M 13.75 21.585938 " fill-opacity="1" fill-rule="nonzero"></path><path fill="#ffffff" d="M 12.199219 17.996094 C 12.167969 17.769531 12.042969 17.648438 11.816406 17.632812 L 11.785156 17.632812 C 11.578125 17.628906 11.441406 17.730469 11.378906 17.929688 L 10.996094 19.207031 L 10.609375 17.929688 C 10.550781 17.730469 10.414062 17.628906 10.207031 17.632812 L 10.175781 17.632812 C 9.949219 17.648438 9.820312 17.769531 9.792969 17.996094 L 9.285156 21.953125 C 9.269531 22.070312 9.296875 22.171875 9.371094 22.265625 C 9.441406 22.355469 9.53125 22.410156 9.648438 22.421875 C 9.667969 22.425781 9.6875 22.425781 9.707031 22.421875 C 9.8125 22.421875 9.902344 22.386719 9.980469 22.316406 C 10.058594 22.25 10.105469 22.160156 10.117188 22.054688 L 10.378906 20.046875 L 10.597656 20.777344 C 10.65625 20.976562 10.789062 21.078125 11 21.078125 C 11.207031 21.078125 11.34375 20.976562 11.402344 20.777344 L 11.621094 20.046875 L 11.882812 22.054688 C 11.894531 22.160156 11.941406 22.25 12.019531 22.316406 C 12.101562 22.386719 12.191406 22.421875 12.296875 22.421875 C 12.316406 22.425781 12.332031 22.425781 12.351562 22.421875 C 12.464844 22.410156 12.558594 22.355469 12.628906 22.265625 C 12.699219 22.171875 12.730469 22.070312 12.714844 21.953125 Z M 12.199219 17.996094 " fill-opacity="1" fill-rule="nonzero"></path><path fill="#ffffff" d="M 8.242188 18.46875 C 8.363281 18.476562 8.464844 18.4375 8.554688 18.355469 C 8.640625 18.273438 8.683594 18.171875 8.683594 18.050781 C 8.683594 17.929688 8.640625 17.828125 8.554688 17.746094 C 8.464844 17.660156 8.363281 17.625 8.242188 17.628906 L 6.101562 17.628906 C 5.863281 17.628906 5.65625 17.714844 5.488281 17.886719 C 5.316406 18.054688 5.234375 18.257812 5.234375 18.5 L 5.234375 21.558594 C 5.234375 21.796875 5.316406 22.003906 5.488281 22.171875 C 5.65625 22.339844 5.863281 22.425781 6.101562 22.425781 L 8.242188 22.425781 C 8.363281 22.433594 8.464844 22.394531 8.554688 22.3125 C 8.640625 22.230469 8.683594 22.128906 8.683594 22.007812 C 8.683594 21.886719 8.640625 21.785156 8.554688 21.703125 C 8.464844 21.617188 8.363281 21.582031 8.242188 21.585938 L 6.070312 21.558594 L 6.101562 18.46875 Z M 8.242188 18.46875 " fill-opacity="1" fill-rule="nonzero"></path></svg>