<svg xmlns="http://www.w3.org/2000/svg" xmlns:xlink="http://www.w3.org/1999/xlink" width="43" viewBox="0 0 32.25 32.249998" height="43" preserveAspectRatio="xMidYMid meet"><defs><clipPath id="832bc18be1"><path d="M 0 0 L 31.515625 0 L 31.515625 31.515625 L 0 31.515625 Z M 0 0 " clip-rule="nonzero"></path></clipPath><clipPath id="91d9e675ae"><path d="M 8 5.320312 L 24 5.320312 L 24 15 L 8 15 Z M 8 5.320312 " clip-rule="nonzero"></path></clipPath><clipPath id="c5f338a971"><path d="M 25 11 L 27.402344 11 L 27.402344 18 L 25 18 Z M 25 11 " clip-rule="nonzero"></path></clipPath><clipPath id="a156fc75a9"><path d="M 8 16 L 24 16 L 24 25.84375 L 8 25.84375 Z M 8 16 " clip-rule="nonzero"></path></clipPath></defs><g clip-path="url(#832bc18be1)"><path fill="#ffffff" d="M 0 0 L 31.515625 0 L 31.515625 31.515625 L 0 31.515625 Z M 0 0 " fill-opacity="1" fill-rule="nonzero"></path><path fill="#2b6fc8" d="M 0 0 L 31.515625 0 L 31.515625 31.515625 L 0 31.515625 Z M 0 0 " fill-opacity="1" fill-rule="nonzero"></path></g><path fill="#ffffff" d="M 7.265625 18.707031 L 5.238281 22.183594 C 5.15625 22.328125 5.019531 22.429688 4.855469 22.472656 C 4.691406 22.515625 4.519531 22.496094 4.375 22.414062 C 4.074219 22.242188 3.96875 21.855469 4.144531 21.558594 L 6.167969 18.082031 L 6.320312 18.167969 C 6.320312 18.167969 6.320312 18.167969 6.324219 18.171875 L 7.113281 18.621094 Z M 7.265625 18.707031 " fill-opacity="1" fill-rule="nonzero"></path><path fill="#ffffff" d="M 7.429688 17.171875 C 7.457031 17.1875 7.480469 17.203125 7.507812 17.214844 C 7.535156 17.230469 7.558594 17.242188 7.585938 17.257812 L 7.148438 18.007812 L 6.84375 17.832031 L 7.277344 17.082031 C 7.304688 17.097656 7.328125 17.113281 7.355469 17.128906 C 7.378906 17.144531 7.40625 17.160156 7.429688 17.171875 Z M 7.429688 17.171875 " fill-opacity="1" fill-rule="nonzero"></path><path fill="#ffffff" d="M 12.417969 12.609375 C 12.613281 13.335938 12.511719 14.097656 12.132812 14.75 C 11.753906 15.402344 11.136719 15.867188 10.402344 16.0625 C 9.667969 16.257812 8.898438 16.160156 8.242188 15.78125 C 7.582031 15.40625 7.109375 14.796875 6.914062 14.070312 C 6.714844 13.339844 6.816406 12.582031 7.199219 11.929688 C 7.578125 11.277344 8.191406 10.808594 8.929688 10.613281 C 9.171875 10.550781 9.421875 10.515625 9.671875 10.515625 C 9.917969 10.515625 10.160156 10.550781 10.398438 10.613281 C 10.640625 10.675781 10.871094 10.769531 11.089844 10.894531 C 11.75 11.273438 12.21875 11.882812 12.417969 12.609375 Z M 12.417969 12.609375 " fill-opacity="1" fill-rule="nonzero"></path><path fill="#ffffff" d="M 13.457031 12.386719 C 13.632812 13.0625 13.621094 13.757812 13.429688 14.410156 C 13.425781 14.414062 13.425781 14.417969 13.425781 14.421875 C 13.339844 14.71875 13.214844 15.003906 13.054688 15.277344 C 12.789062 15.734375 12.4375 16.125 12.023438 16.433594 C 12.015625 16.441406 12.007812 16.449219 12 16.453125 C 11.609375 16.738281 11.164062 16.957031 10.679688 17.082031 C 7.304688 17.945312 4.527344 14.398438 6.277344 11.402344 C 6.777344 10.542969 7.574219 9.917969 8.527344 9.628906 C 8.570312 9.617188 8.609375 9.605469 8.652344 9.59375 C 8.988281 9.503906 9.332031 9.460938 9.671875 9.460938 C 10.011719 9.460938 10.347656 9.503906 10.675781 9.59375 C 11.003906 9.679688 11.320312 9.808594 11.621094 9.980469 C 11.820312 10.09375 12.007812 10.222656 12.179688 10.367188 C 12.179688 10.367188 12.183594 10.371094 12.1875 10.375 C 12.796875 10.878906 13.234375 11.558594 13.445312 12.335938 C 13.449219 12.351562 13.453125 12.367188 13.457031 12.386719 Z M 12.613281 15.023438 C 13.070312 14.246094 13.191406 13.335938 12.953125 12.464844 C 12.71875 11.597656 12.15625 10.867188 11.367188 10.417969 C 10.582031 9.96875 9.664062 9.847656 8.785156 10.082031 C 7.90625 10.316406 7.171875 10.871094 6.71875 11.652344 C 6.261719 12.433594 6.140625 13.339844 6.375 14.210938 C 6.613281 15.082031 7.175781 15.808594 7.964844 16.257812 C 8.488281 16.558594 9.070312 16.710938 9.660156 16.710938 C 9.957031 16.710938 10.253906 16.675781 10.546875 16.597656 C 11.425781 16.363281 12.160156 15.804688 12.613281 15.023438 Z M 12.613281 15.023438 " fill-opacity="1" fill-rule="nonzero"></path><g clip-path="url(#91d9e675ae)"><path fill="#ffffff" d="M 23.667969 5.320312 L 23.667969 12.371094 L 21.753906 13.628906 L 20.292969 14.019531 C 20.15625 14.054688 20.039062 14.125 19.945312 14.222656 L 14.046875 14.222656 C 14.15625 13.695312 14.167969 13.148438 14.074219 12.605469 L 21.722656 12.605469 C 21.875 12.605469 22 12.480469 22 12.328125 C 22 12.179688 21.875 12.054688 21.722656 12.054688 L 13.945312 12.054688 C 13.785156 11.539062 13.539062 11.0625 13.214844 10.644531 C 13.160156 10.574219 13.101562 10.503906 13.042969 10.4375 L 21.722656 10.4375 C 21.875 10.4375 22 10.3125 22 10.164062 C 22 10.011719 21.875 9.886719 21.722656 9.886719 L 12.464844 9.886719 C 12.289062 9.746094 12.101562 9.621094 11.902344 9.507812 C 10.925781 8.949219 9.800781 8.777344 8.707031 9.015625 L 8.707031 5.320312 Z M 22 7.992188 C 22 7.839844 21.875 7.71875 21.722656 7.71875 L 10.65625 7.71875 C 10.503906 7.71875 10.378906 7.839844 10.378906 7.992188 C 10.378906 8.144531 10.503906 8.269531 10.65625 8.269531 L 21.722656 8.269531 C 21.875 8.269531 22 8.144531 22 7.992188 Z M 22 7.992188 " fill-opacity="1" fill-rule="nonzero"></path></g><g clip-path="url(#c5f338a971)"><path fill="#ffffff" d="M 25.832031 11.367188 L 27.375 17.078125 L 26.914062 17.199219 L 26.871094 17.039062 C 26.871094 17.035156 26.871094 17.035156 26.871094 17.03125 L 25.414062 11.65625 L 25.371094 11.488281 Z M 25.832031 11.367188 " fill-opacity="1" fill-rule="nonzero"></path></g><path fill="#ffffff" d="M 22.890625 16.59375 L 22.191406 14.003906 L 24.980469 12.167969 L 26.230469 16.804688 Z M 22.890625 16.59375 " fill-opacity="1" fill-rule="nonzero"></path><path fill="#ffffff" d="M 20.300781 14.78125 C 20.289062 14.734375 20.296875 14.683594 20.316406 14.644531 C 20.320312 14.644531 20.320312 14.640625 20.320312 14.640625 C 20.324219 14.636719 20.324219 14.632812 20.328125 14.628906 C 20.328125 14.628906 20.328125 14.628906 20.328125 14.625 C 20.351562 14.589844 20.390625 14.5625 20.4375 14.550781 L 21.671875 14.222656 L 22.332031 16.660156 L 21.097656 16.988281 C 20.996094 17.015625 20.890625 16.953125 20.863281 16.855469 Z M 20.300781 14.78125 " fill-opacity="1" fill-rule="nonzero"></path><path fill="#ffffff" d="M 21.597656 17.429688 L 21.9375 17.339844 L 22.519531 19.496094 L 22.179688 19.585938 Z M 21.597656 17.429688 " fill-opacity="1" fill-rule="nonzero"></path><path fill="#ffffff" d="M 19.765625 14.925781 L 20.160156 16.390625 L 12.90625 16.390625 C 13.148438 16.140625 13.359375 15.859375 13.539062 15.554688 C 13.683594 15.300781 13.804688 15.042969 13.898438 14.773438 L 19.738281 14.773438 C 19.742188 14.824219 19.75 14.875 19.765625 14.925781 Z M 19.765625 14.925781 " fill-opacity="1" fill-rule="nonzero"></path><g clip-path="url(#a156fc75a9)"><path fill="#ffffff" d="M 23.667969 17.195312 L 23.667969 25.84375 L 8.707031 25.84375 L 8.707031 17.664062 C 9.019531 17.734375 9.339844 17.769531 9.660156 17.769531 C 10.046875 17.769531 10.4375 17.71875 10.824219 17.617188 C 11.351562 17.476562 11.835938 17.246094 12.269531 16.941406 L 20.308594 16.941406 L 20.324219 17 C 20.414062 17.328125 20.71875 17.546875 21.046875 17.546875 C 21.050781 17.546875 21.050781 17.546875 21.054688 17.546875 L 21.328125 18.558594 C 21.320312 18.558594 21.3125 18.558594 21.304688 18.558594 L 10.65625 18.558594 C 10.503906 18.558594 10.378906 18.683594 10.378906 18.832031 C 10.378906 18.984375 10.503906 19.109375 10.65625 19.109375 L 21.304688 19.109375 C 21.363281 19.109375 21.417969 19.089844 21.460938 19.0625 L 21.714844 19.996094 C 21.753906 20.140625 21.917969 20.226562 22.054688 20.191406 L 22.933594 19.957031 C 23.082031 19.917969 23.171875 19.765625 23.128906 19.621094 L 22.472656 17.195312 L 22.703125 17.136719 Z M 22 21 C 22 20.847656 21.875 20.726562 21.722656 20.726562 L 10.65625 20.726562 C 10.503906 20.726562 10.378906 20.847656 10.378906 21 C 10.378906 21.152344 10.503906 21.277344 10.65625 21.277344 L 21.722656 21.277344 C 21.875 21.277344 22 21.152344 22 21 Z M 22 23.167969 C 22 23.019531 21.875 22.894531 21.722656 22.894531 L 10.65625 22.894531 C 10.503906 22.894531 10.378906 23.019531 10.378906 23.167969 C 10.378906 23.320312 10.503906 23.445312 10.65625 23.445312 L 21.722656 23.445312 C 21.875 23.445312 22 23.320312 22 23.167969 Z M 22 23.167969 " fill-opacity="1" fill-rule="nonzero"></path></g></svg>