<svg xmlns="http://www.w3.org/2000/svg" xmlns:xlink="http://www.w3.org/1999/xlink" width="43" viewBox="0 0 32.25 32.249998" height="43" preserveAspectRatio="xMidYMid meet"><defs><clipPath id="680a93d323"><path d="M 0 0 L 31.515625 0 L 31.515625 31.515625 L 0 31.515625 Z M 0 0 " clip-rule="nonzero"></path></clipPath><clipPath id="bb48ca348b"><path d="M 4.863281 4.582031 L 26.851562 4.582031 L 26.851562 26.570312 L 4.863281 26.570312 Z M 4.863281 4.582031 " clip-rule="nonzero"></path></clipPath></defs><g clip-path="url(#680a93d323)"><path fill="#ffffff" d="M 0 0 L 31.515625 0 L 31.515625 31.515625 L 0 31.515625 Z M 0 0 " fill-opacity="1" fill-rule="nonzero"></path><path fill="#8fcb76" d="M 0 0 L 31.515625 0 L 31.515625 31.515625 L 0 31.515625 Z M 0 0 " fill-opacity="1" fill-rule="nonzero"></path></g><g clip-path="url(#bb48ca348b)"><path fill="#ffffff" d="M 25.074219 11.308594 C 25.023438 11.5 24.84375 11.625 24.648438 11.625 C 24.613281 11.625 24.574219 11.621094 24.535156 11.613281 L 23.15625 11.25 C 22.917969 11.191406 22.78125 10.953125 22.84375 10.726562 C 22.90625 10.496094 23.148438 10.363281 23.382812 10.421875 L 24.761719 10.785156 C 24.996094 10.84375 25.136719 11.082031 25.074219 11.308594 Z M 21.894531 7.269531 C 21.722656 7.101562 21.722656 6.832031 21.894531 6.664062 L 22.90625 5.675781 C 23.078125 5.511719 23.355469 5.511719 23.527344 5.675781 C 23.699219 5.84375 23.699219 6.117188 23.527344 6.285156 L 22.515625 7.269531 C 22.429688 7.351562 22.316406 7.394531 22.203125 7.394531 C 22.089844 7.394531 21.980469 7.351562 21.894531 7.269531 Z M 23.488281 8.261719 L 24.800781 7.917969 C 25.035156 7.859375 25.273438 7.992188 25.335938 8.222656 C 25.398438 8.449219 25.261719 8.6875 25.027344 8.746094 L 23.71875 9.089844 C 23.679688 9.097656 23.640625 9.105469 23.601562 9.105469 C 23.410156 9.105469 23.230469 8.976562 23.179688 8.785156 C 23.117188 8.558594 23.253906 8.324219 23.488281 8.261719 Z M 6.625 25.714844 L 13.308594 19.996094 L 15.59375 21.941406 C 15.675781 22.011719 15.777344 22.046875 15.882812 22.046875 C 15.984375 22.046875 16.085938 22.011719 16.167969 21.941406 L 18.488281 19.992188 L 25.246094 25.699219 C 25.195312 25.710938 25.140625 25.714844 25.089844 25.714844 Z M 5.839844 25.242188 L 12.640625 19.425781 L 5.839844 13.640625 C 5.78125 13.757812 5.746094 13.886719 5.746094 14.023438 L 5.746094 24.859375 C 5.746094 24.996094 5.78125 25.128906 5.839844 25.242188 Z M 9.664062 13.167969 L 6.625 13.167969 C 6.625 13.167969 6.621094 13.167969 6.621094 13.167969 L 15.882812 21.050781 L 25.246094 13.183594 C 25.195312 13.171875 25.144531 13.167969 25.089844 13.167969 L 22.320312 13.167969 C 22.375 13.808594 21.957031 14.417969 21.296875 14.589844 C 21.179688 14.621094 21.058594 14.636719 20.9375 14.636719 C 20.433594 14.636719 19.964844 14.363281 19.722656 13.929688 C 18.355469 13.367188 16.492188 13.179688 14.53125 13.402344 L 15.492188 15.6875 C 15.65625 16.082031 15.488281 16.53125 15.097656 16.726562 L 14.515625 17.015625 C 14.394531 17.078125 14.265625 17.109375 14.132812 17.109375 C 14.035156 17.109375 13.9375 17.089844 13.839844 17.058594 C 13.617188 16.976562 13.445312 16.816406 13.355469 16.601562 L 12.300781 14.117188 C 12.097656 14.167969 11.890625 14.195312 11.6875 14.195312 C 11.257812 14.195312 10.835938 14.085938 10.453125 13.871094 C 10.136719 13.691406 9.867188 13.453125 9.664062 13.167969 Z M 11.273438 10.292969 L 12.625 9.9375 L 13.445312 12.933594 L 12.097656 13.285156 C 11.25 13.503906 10.378906 13.015625 10.152344 12.1875 C 9.925781 11.363281 10.429688 10.511719 11.273438 10.292969 Z M 13.726562 13.746094 L 14.664062 15.980469 L 14.152344 16.238281 L 13.160156 13.894531 Z M 17.792969 7.0625 L 19.398438 12.902344 C 17.9375 12.449219 16.152344 12.335938 14.257812 12.570312 L 13.511719 9.855469 C 15.277344 9.136719 16.761719 8.167969 17.792969 7.0625 Z M 18.492188 5.734375 C 18.5625 5.621094 18.671875 5.539062 18.800781 5.503906 C 18.84375 5.492188 18.886719 5.488281 18.929688 5.488281 C 19.019531 5.488281 19.105469 5.511719 19.183594 5.554688 C 19.300781 5.621094 19.386719 5.726562 19.421875 5.851562 L 21.425781 13.160156 C 21.5 13.421875 21.339844 13.691406 21.070312 13.761719 C 20.800781 13.832031 20.523438 13.675781 20.449219 13.414062 L 18.441406 6.109375 C 18.40625 5.980469 18.425781 5.847656 18.492188 5.734375 Z M 21.40625 8.78125 C 21.316406 8.730469 21.214844 8.699219 21.113281 8.695312 L 21.433594 9.871094 C 21.519531 9.816406 21.59375 9.742188 21.648438 9.652344 C 21.734375 9.507812 21.757812 9.335938 21.710938 9.167969 C 21.667969 9.003906 21.558594 8.867188 21.40625 8.78125 Z M 25.96875 14.023438 C 25.96875 13.929688 25.949219 13.835938 25.917969 13.75 L 19.164062 19.425781 L 25.917969 25.136719 C 25.949219 25.046875 25.96875 24.953125 25.96875 24.859375 Z M 25.089844 12.3125 L 22.105469 12.3125 L 21.667969 10.714844 C 21.976562 10.589844 22.238281 10.371094 22.40625 10.082031 C 22.613281 9.738281 22.667969 9.332031 22.5625 8.949219 C 22.359375 8.214844 21.628906 7.753906 20.878906 7.851562 L 20.269531 5.632812 C 20.171875 5.285156 19.945312 4.992188 19.625 4.8125 C 19.300781 4.632812 18.929688 4.582031 18.574219 4.675781 C 18.214844 4.769531 17.917969 4.992188 17.734375 5.304688 C 17.601562 5.527344 17.539062 5.769531 17.546875 6.015625 C 16.625 7.199219 15.054688 8.292969 13.183594 9.058594 C 13.082031 8.992188 12.949219 8.96875 12.820312 9 L 11.046875 9.464844 C 9.765625 9.796875 8.992188 11.0625 9.277344 12.3125 L 6.625 12.3125 C 5.65625 12.3125 4.867188 13.078125 4.867188 14.023438 L 4.867188 24.859375 C 4.867188 25.804688 5.65625 26.570312 6.625 26.570312 L 25.089844 26.570312 C 26.058594 26.570312 26.847656 25.804688 26.847656 24.859375 L 26.847656 14.023438 C 26.847656 13.078125 26.058594 12.3125 25.089844 12.3125 Z M 25.089844 12.3125 " fill-opacity="1" fill-rule="evenodd"></path></g></svg>