<svg xmlns="http://www.w3.org/2000/svg" xmlns:xlink="http://www.w3.org/1999/xlink" width="43" viewBox="0 0 32.25 32.249998" height="43" preserveAspectRatio="xMidYMid meet"><defs><clipPath id="259ff2a4e2"><path d="M 0 0 L 31.515625 0 L 31.515625 31.515625 L 0 31.515625 Z M 0 0 " clip-rule="nonzero"></path></clipPath><clipPath id="920170dc5c"><path d="M 8 21 L 12 21 L 12 26.257812 L 8 26.257812 Z M 8 21 " clip-rule="nonzero"></path></clipPath><clipPath id="8f1531afb2"><path d="M 22 10 L 27.359375 10 L 27.359375 16 L 22 16 Z M 22 10 " clip-rule="nonzero"></path></clipPath><clipPath id="caaea3836f"><path d="M 22 17 L 27.359375 17 L 27.359375 23 L 22 23 Z M 22 17 " clip-rule="nonzero"></path></clipPath></defs><g clip-path="url(#259ff2a4e2)"><path fill="#ffffff" d="M 0 0 L 31.515625 0 L 31.515625 31.515625 L 0 31.515625 Z M 0 0 " fill-opacity="1" fill-rule="nonzero"></path><path fill="#96ced6" d="M 0 0 L 31.515625 0 L 31.515625 31.515625 L 0 31.515625 Z M 0 0 " fill-opacity="1" fill-rule="nonzero"></path></g><g clip-path="url(#920170dc5c)"><path fill="#ead7ca" d="M 8.546875 22.332031 L 9.96875 21.625 L 11.828125 25.351562 L 10.40625 26.0625 Z M 8.546875 22.332031 " fill-opacity="1" fill-rule="nonzero"></path><path fill="#ffffff" d="M 10.355469 26.21875 L 8.386719 22.289062 L 10.019531 21.464844 L 11.988281 25.398438 Z M 8.703125 22.382812 L 10.457031 25.902344 L 11.671875 25.300781 L 9.914062 21.78125 Z M 8.703125 22.382812 " fill-opacity="1" fill-rule="nonzero"></path></g><path fill="#ffffff" d="M 9.082031 22.757812 L 10.4375 25.414062 L 10.734375 25.238281 L 9.445312 22.582031 Z M 9.082031 22.757812 " fill-opacity="1" fill-rule="nonzero"></path><path fill="#ead7ca" d="M 9.257812 21.976562 L 9.96875 21.625 L 11.828125 25.351562 L 11.117188 25.707031 Z M 9.257812 21.976562 " fill-opacity="1" fill-rule="nonzero"></path><path fill="#ffffff" d="M 11.066406 25.863281 L 9.097656 21.933594 L 10.019531 21.464844 L 11.988281 25.398438 Z M 9.414062 22.03125 L 11.171875 25.550781 L 11.675781 25.300781 L 9.914062 21.78125 Z M 9.414062 22.03125 " fill-opacity="1" fill-rule="nonzero"></path><path fill="#ead7ca" d="M 7.535156 18.34375 C 7.203125 20.566406 7.929688 21.929688 9.609375 22.496094 L 7.226562 23.675781 C 5.476562 22.546875 4.933594 21.125 5.152344 19.527344 Z M 7.535156 18.34375 " fill-opacity="1" fill-rule="nonzero"></path><path fill="#ffffff" d="M 7.21875 23.824219 L 7.164062 23.789062 C 5.488281 22.691406 4.792969 21.296875 5.039062 19.511719 L 5.039062 19.453125 L 7.675781 18.136719 L 7.644531 18.359375 C 7.320312 20.507812 7.976562 21.824219 9.636719 22.386719 L 9.902344 22.476562 Z M 5.261719 19.605469 C 5.054688 21.242188 5.703125 22.535156 7.230469 23.550781 L 9.316406 22.511719 C 7.792969 21.890625 7.152344 20.558594 7.390625 18.546875 Z M 5.261719 19.605469 " fill-opacity="1" fill-rule="nonzero"></path><path fill="#ffffff" d="M 7.699219 18.960938 L 5.824219 19.921875 C 5.789062 20.527344 5.910156 21.097656 6.183594 21.632812 C 6.457031 22.171875 6.847656 22.605469 7.359375 22.933594 L 9.21875 22.074219 C 8.71875 21.714844 8.335938 21.257812 8.066406 20.707031 C 7.796875 20.15625 7.675781 19.574219 7.699219 18.960938 Z M 7.699219 18.960938 " fill-opacity="1" fill-rule="nonzero"></path><path fill="#ead7ca" d="M 7.992188 21.308594 C 8.378906 21.839844 8.863281 22.265625 9.445312 22.582031 C 9.445312 22.582031 14.332031 19.894531 18.910156 21.539062 L 18.492188 19.867188 L 17.8125 17.179688 L 16.609375 14.769531 L 13.628906 11.269531 C 13.628906 11.269531 11.703125 16.355469 7.371094 18.425781 C 7.226562 19.5625 7.433594 20.523438 7.992188 21.308594 Z M 7.992188 21.308594 " fill-opacity="1" fill-rule="nonzero"></path><path fill="#ffffff" d="M 9.441406 22.714844 L 9.386719 22.679688 C 8.792969 22.355469 8.292969 21.921875 7.894531 21.375 C 7.320312 20.570312 7.109375 19.570312 7.253906 18.410156 L 7.253906 18.347656 L 7.3125 18.320312 C 11.558594 16.289062 13.503906 11.277344 13.519531 11.226562 L 13.589844 11.042969 L 16.707031 14.703125 L 16.707031 14.714844 L 17.921875 17.140625 L 19.078125 21.722656 L 18.878906 21.648438 C 14.398438 20.046875 9.558594 22.65625 9.511719 22.683594 Z M 7.476562 18.503906 C 7.351562 19.574219 7.554688 20.496094 8.082031 21.242188 C 8.449219 21.742188 8.90625 22.144531 9.445312 22.449219 C 10.402344 21.96875 11.394531 21.597656 12.429688 21.332031 C 14.035156 20.917969 16.414062 20.589844 18.746094 21.359375 L 17.703125 17.21875 L 16.511719 14.835938 L 13.664062 11.492188 C 13.265625 12.417969 12.785156 13.296875 12.222656 14.136719 C 11.285156 15.527344 9.707031 17.414062 7.476562 18.503906 Z M 7.476562 18.503906 " fill-opacity="1" fill-rule="nonzero"></path><path fill="#ffffff" d="M 7.90625 18.960938 C 7.90625 18.960938 7.867188 20.925781 9.410156 21.964844 C 9.410156 21.964844 13.402344 19.507812 17.957031 20.535156 L 14.023438 12.449219 C 14.023438 12.449219 12.984375 16.222656 7.90625 18.960938 Z M 7.90625 18.960938 " fill-opacity="1" fill-rule="nonzero"></path><path fill="#ead7ca" d="M 19.613281 14.664062 C 19.796875 15.03125 19.960938 15.402344 20.109375 15.777344 C 20.257812 16.152344 20.386719 16.523438 20.492188 16.894531 C 20.601562 17.261719 20.6875 17.621094 20.75 17.972656 C 20.8125 18.320312 20.851562 18.652344 20.867188 18.96875 C 20.882812 19.285156 20.875 19.578125 20.84375 19.847656 C 20.808594 20.117188 20.753906 20.359375 20.675781 20.574219 C 20.597656 20.789062 20.496094 20.96875 20.375 21.121094 C 20.253906 21.269531 20.113281 21.386719 19.953125 21.464844 C 19.792969 21.546875 19.613281 21.589844 19.421875 21.597656 C 19.226562 21.601562 19.023438 21.574219 18.804688 21.507812 C 18.585938 21.441406 18.359375 21.339844 18.121094 21.203125 C 17.886719 21.066406 17.648438 20.894531 17.40625 20.691406 C 17.164062 20.492188 16.921875 20.257812 16.679688 20 C 16.4375 19.738281 16.203125 19.453125 15.972656 19.144531 C 15.742188 18.839844 15.519531 18.511719 15.308594 18.167969 C 15.097656 17.824219 14.902344 17.46875 14.71875 17.101562 C 14.535156 16.738281 14.371094 16.367188 14.222656 15.992188 C 14.074219 15.617188 13.945312 15.242188 13.839844 14.875 C 13.730469 14.503906 13.644531 14.144531 13.582031 13.796875 C 13.519531 13.449219 13.480469 13.117188 13.464844 12.800781 C 13.449219 12.484375 13.457031 12.191406 13.488281 11.921875 C 13.523438 11.652344 13.578125 11.410156 13.65625 11.195312 C 13.734375 10.980469 13.835938 10.796875 13.957031 10.648438 C 14.078125 10.5 14.21875 10.382812 14.378906 10.304688 C 14.542969 10.222656 14.71875 10.179688 14.910156 10.171875 C 15.105469 10.164062 15.3125 10.195312 15.527344 10.261719 C 15.746094 10.328125 15.976562 10.429688 16.210938 10.566406 C 16.445312 10.703125 16.683594 10.875 16.925781 11.074219 C 17.171875 11.277344 17.414062 11.507812 17.652344 11.769531 C 17.894531 12.03125 18.132812 12.3125 18.363281 12.621094 C 18.59375 12.929688 18.8125 13.257812 19.023438 13.601562 C 19.234375 13.945312 19.429688 14.296875 19.613281 14.664062 Z M 19.613281 14.664062 " fill-opacity="1" fill-rule="nonzero"></path><path fill="#ffffff" d="M 19.386719 14.894531 C 19.535156 15.191406 19.667969 15.492188 19.789062 15.800781 C 19.910156 16.105469 20.011719 16.40625 20.101562 16.707031 C 20.1875 17.007812 20.257812 17.296875 20.308594 17.582031 C 20.359375 17.867188 20.390625 18.136719 20.40625 18.394531 C 20.417969 18.648438 20.410156 18.886719 20.386719 19.105469 C 20.359375 19.328125 20.3125 19.523438 20.25 19.695312 C 20.1875 19.871094 20.105469 20.019531 20.007812 20.140625 C 19.90625 20.261719 19.792969 20.355469 19.660156 20.421875 C 19.53125 20.488281 19.386719 20.523438 19.230469 20.527344 C 19.074219 20.53125 18.90625 20.507812 18.730469 20.453125 C 18.550781 20.402344 18.367188 20.320312 18.175781 20.207031 C 17.984375 20.09375 17.789062 19.957031 17.59375 19.792969 C 17.394531 19.628906 17.199219 19.441406 17.003906 19.230469 C 16.804688 19.015625 16.613281 18.785156 16.425781 18.535156 C 16.238281 18.285156 16.0625 18.019531 15.890625 17.742188 C 15.71875 17.460938 15.558594 17.171875 15.410156 16.875 C 15.261719 16.578125 15.125 16.277344 15.007812 15.972656 C 14.886719 15.667969 14.78125 15.363281 14.695312 15.0625 C 14.605469 14.761719 14.539062 14.472656 14.488281 14.1875 C 14.433594 13.902344 14.402344 13.632812 14.390625 13.378906 C 14.378906 13.121094 14.382812 12.882812 14.410156 12.664062 C 14.4375 12.445312 14.480469 12.246094 14.542969 12.074219 C 14.609375 11.898438 14.691406 11.75 14.789062 11.628906 C 14.886719 11.507812 15.003906 11.414062 15.132812 11.347656 C 15.265625 11.285156 15.40625 11.25 15.566406 11.242188 C 15.722656 11.238281 15.890625 11.261719 16.066406 11.316406 C 16.242188 11.367188 16.429688 11.453125 16.621094 11.5625 C 16.8125 11.675781 17.003906 11.8125 17.203125 11.976562 C 17.398438 12.140625 17.597656 12.328125 17.792969 12.542969 C 17.988281 12.753906 18.179688 12.984375 18.367188 13.234375 C 18.554688 13.484375 18.734375 13.75 18.90625 14.027344 C 19.078125 14.308594 19.238281 14.597656 19.386719 14.894531 Z M 19.386719 14.894531 " fill-opacity="1" fill-rule="nonzero"></path><path fill="#ffffff" d="M 19.363281 21.71875 C 18.773438 21.71875 18.070312 21.398438 17.332031 20.785156 C 16.332031 19.949219 15.363281 18.660156 14.617188 17.15625 C 13.867188 15.648438 13.414062 14.105469 13.347656 12.804688 C 13.285156 11.472656 13.628906 10.546875 14.332031 10.199219 C 15.035156 9.851562 15.980469 10.132812 17.003906 10.984375 C 18.03125 11.835938 18.972656 13.105469 19.722656 14.613281 C 20.472656 16.117188 20.921875 17.664062 20.988281 18.960938 C 21.054688 20.296875 20.707031 21.222656 20.003906 21.570312 C 19.800781 21.667969 19.589844 21.71875 19.363281 21.71875 Z M 14.824219 17.050781 C 15.5625 18.527344 16.496094 19.789062 17.480469 20.601562 C 18.464844 21.417969 19.292969 21.664062 19.902344 21.363281 C 20.511719 21.0625 20.8125 20.210938 20.75 18.976562 C 20.6875 17.707031 20.246094 16.195312 19.507812 14.71875 C 18.773438 13.242188 17.828125 11.980469 16.851562 11.164062 C 15.875 10.347656 15.042969 10.105469 14.433594 10.410156 C 13.824219 10.710938 13.523438 11.558594 13.582031 12.792969 C 13.644531 14.0625 14.085938 15.570312 14.824219 17.050781 Z M 14.824219 17.050781 " fill-opacity="1" fill-rule="nonzero"></path><path fill="#ead7ca" d="M 15.433594 17.003906 C 16.152344 18.441406 17.109375 19.558594 17.96875 20.046875 C 18.472656 20.335938 18.9375 20.414062 19.304688 20.230469 C 20.304688 19.734375 20.191406 17.476562 19.054688 15.199219 C 17.914062 12.921875 16.183594 11.464844 15.183594 11.972656 C 14.839844 12.171875 14.640625 12.464844 14.578125 12.855469 C 14.34375 13.835938 14.640625 15.410156 15.433594 17.003906 Z M 15.433594 17.003906 " fill-opacity="1" fill-rule="nonzero"></path><path fill="#ffffff" d="M 15.652344 16.75 C 16.167969 17.777344 16.851562 18.570312 17.46875 18.925781 C 17.824219 19.132812 18.15625 19.1875 18.421875 19.054688 C 19.136719 18.699219 19.058594 17.089844 18.242188 15.460938 C 17.429688 13.828125 16.1875 12.800781 15.472656 13.15625 C 15.230469 13.296875 15.085938 13.507812 15.042969 13.789062 C 14.875 14.488281 15.085938 15.617188 15.652344 16.75 Z M 15.652344 16.75 " fill-opacity="1" fill-rule="nonzero"></path><path fill="#ffffff" d="M 18.871094 20.445312 C 18.523438 20.429688 18.207031 20.332031 17.910156 20.148438 C 17 19.621094 16.035156 18.464844 15.332031 17.054688 C 14.542969 15.480469 14.214844 13.871094 14.464844 12.828125 C 14.535156 12.402344 14.757812 12.082031 15.132812 11.867188 C 15.660156 11.605469 16.371094 11.8125 17.140625 12.457031 C 17.996094 13.21875 18.667969 14.117188 19.15625 15.148438 C 19.6875 16.160156 20.003906 17.238281 20.097656 18.375 C 20.148438 19.375 19.882812 20.070312 19.359375 20.34375 C 19.203125 20.414062 19.042969 20.449219 18.871094 20.445312 Z M 15.539062 16.945312 C 16.222656 18.320312 17.15625 19.4375 18.027344 19.941406 C 18.363281 20.136719 18.851562 20.320312 19.253906 20.121094 C 19.65625 19.921875 19.910156 19.273438 19.863281 18.382812 C 19.769531 17.273438 19.464844 16.226562 18.949219 15.238281 C 18.472656 14.234375 17.820312 13.363281 16.992188 12.621094 C 16.308594 12.050781 15.667969 11.847656 15.234375 12.0625 C 14.929688 12.246094 14.746094 12.515625 14.691406 12.871094 C 14.457031 13.871094 14.78125 15.429688 15.539062 16.945312 Z M 15.539062 16.945312 " fill-opacity="1" fill-rule="nonzero"></path><path fill="#ead7ca" d="M 15.433594 17.003906 C 15.671875 17.484375 15.945312 17.941406 16.257812 18.378906 C 16.710938 19.054688 17.28125 19.613281 17.96875 20.054688 C 18.492188 19.308594 18.289062 17.574219 17.417969 15.824219 C 16.609375 14.207031 15.464844 13.054688 14.578125 12.875 C 14.429688 13.492188 14.496094 14.355469 14.777344 15.308594 C 14.941406 15.894531 15.164062 16.457031 15.433594 17.003906 Z M 15.433594 17.003906 " fill-opacity="1" fill-rule="nonzero"></path><path fill="#ffffff" d="M 18.003906 20.199219 L 17.910156 20.144531 C 17.210938 19.699219 16.628906 19.128906 16.164062 18.4375 C 15.847656 18.003906 15.570312 17.542969 15.332031 17.0625 C 15.050781 16.507812 14.824219 15.929688 14.652344 15.332031 C 14.378906 14.363281 14.3125 13.476562 14.457031 12.839844 L 14.480469 12.726562 L 14.59375 12.753906 C 15.539062 12.949219 16.710938 14.171875 17.511719 15.773438 C 18.398438 17.535156 18.625 19.304688 18.070312 20.113281 Z M 15.539062 16.945312 C 15.773438 17.417969 16.042969 17.871094 16.351562 18.300781 C 16.777344 18.921875 17.300781 19.445312 17.925781 19.871094 C 18.351562 19.105469 18.101562 17.449219 17.304688 15.855469 C 16.574219 14.390625 15.527344 13.261719 14.667969 13 C 14.558594 13.589844 14.632812 14.375 14.878906 15.257812 C 15.046875 15.839844 15.265625 16.402344 15.539062 16.945312 Z M 15.539062 16.945312 " fill-opacity="1" fill-rule="nonzero"></path><path fill="#ead7ca" d="M 15.433594 17.003906 C 15.671875 17.484375 15.945312 17.941406 16.257812 18.378906 L 17.847656 17.59375 L 16.316406 14.519531 L 14.765625 15.289062 C 14.933594 15.882812 15.15625 16.453125 15.433594 17.003906 Z M 15.433594 17.003906 " fill-opacity="1" fill-rule="nonzero"></path><path fill="#ffffff" d="M 16.222656 18.519531 L 16.164062 18.4375 C 15.847656 18 15.570312 17.542969 15.332031 17.0625 C 15.050781 16.503906 14.824219 15.929688 14.652344 15.328125 L 14.625 15.238281 L 16.371094 14.367188 L 18.003906 17.640625 Z M 15.539062 16.945312 C 15.761719 17.390625 16.015625 17.816406 16.300781 18.222656 L 17.691406 17.535156 L 16.265625 14.671875 L 14.90625 15.351562 C 15.070312 15.902344 15.28125 16.433594 15.539062 16.945312 Z M 15.539062 16.945312 " fill-opacity="1" fill-rule="nonzero"></path><path fill="#ead7ca" d="M 16.414062 16.382812 C 16.621094 16.847656 16.933594 17.222656 17.351562 17.511719 C 17.503906 17.621094 17.667969 17.644531 17.847656 17.582031 C 18.21875 17.394531 18.175781 16.558594 17.753906 15.714844 C 17.332031 14.867188 16.691406 14.335938 16.316406 14.515625 C 16.195312 14.59375 16.125 14.703125 16.105469 14.84375 C 16.007812 15.207031 16.117188 15.792969 16.414062 16.382812 Z M 16.414062 16.382812 " fill-opacity="1" fill-rule="nonzero"></path><path fill="#ffffff" d="M 17.679688 17.730469 C 17.535156 17.726562 17.40625 17.6875 17.285156 17.613281 C 16.847656 17.3125 16.519531 16.917969 16.300781 16.433594 C 16.003906 15.84375 15.878906 15.21875 15.976562 14.816406 C 16.003906 14.636719 16.101562 14.5 16.261719 14.410156 C 16.496094 14.300781 16.78125 14.390625 17.085938 14.640625 C 17.414062 14.929688 17.667969 15.269531 17.855469 15.660156 C 18.054688 16.046875 18.175781 16.457031 18.210938 16.886719 C 18.230469 17.28125 18.117188 17.574219 17.894531 17.675781 C 17.828125 17.710938 17.753906 17.730469 17.679688 17.730469 Z M 16.515625 16.332031 C 16.714844 16.773438 17.011719 17.132812 17.410156 17.410156 C 17.53125 17.5 17.660156 17.519531 17.804688 17.472656 C 17.9375 17.410156 18 17.199219 17.988281 16.898438 C 17.902344 16.078125 17.554688 15.382812 16.949219 14.820312 C 16.71875 14.621094 16.511719 14.554688 16.378906 14.621094 C 16.289062 14.679688 16.234375 14.765625 16.214844 14.871094 C 16.132812 15.21875 16.253906 15.789062 16.523438 16.332031 Z M 16.515625 16.332031 " fill-opacity="1" fill-rule="nonzero"></path><path fill="#ffffff" d="M 16.695312 16.296875 C 16.847656 16.644531 17.082031 16.925781 17.398438 17.140625 C 17.511719 17.226562 17.632812 17.242188 17.765625 17.191406 C 18.042969 17.054688 18.011719 16.433594 17.695312 15.800781 C 17.378906 15.171875 16.910156 14.769531 16.625 14.90625 C 16.53125 14.960938 16.472656 15.042969 16.457031 15.152344 C 16.410156 15.558594 16.488281 15.941406 16.695312 16.296875 Z M 16.695312 16.296875 " fill-opacity="1" fill-rule="nonzero"></path><path fill="#ead7ca" d="M 20.222656 7.128906 C 20.050781 7.0625 19.882812 7.066406 19.714844 7.140625 C 19.546875 7.214844 19.429688 7.335938 19.363281 7.507812 C 19.296875 7.679688 19.300781 7.851562 19.375 8.019531 C 19.449219 8.1875 19.570312 8.304688 19.742188 8.371094 C 19.914062 8.4375 20.085938 8.433594 20.253906 8.359375 C 20.421875 8.285156 20.539062 8.160156 20.605469 7.992188 C 20.671875 7.820312 20.667969 7.648438 20.59375 7.480469 C 20.519531 7.3125 20.394531 7.195312 20.222656 7.128906 Z M 20.40625 7.914062 C 20.363281 8.03125 20.28125 8.117188 20.164062 8.167969 C 20.050781 8.21875 19.933594 8.21875 19.816406 8.175781 C 19.699219 8.128906 19.613281 8.046875 19.5625 7.933594 C 19.511719 7.816406 19.511719 7.699219 19.554688 7.582031 C 19.601562 7.464844 19.683594 7.382812 19.796875 7.332031 C 19.914062 7.28125 20.03125 7.277344 20.148438 7.324219 C 20.261719 7.371094 20.34375 7.449219 20.394531 7.5625 C 20.445312 7.675781 20.449219 7.789062 20.40625 7.902344 Z M 20.40625 7.914062 " fill-opacity="1" fill-rule="nonzero"></path><path fill="#ead7ca" d="M 20.886719 7.265625 C 20.894531 7.171875 20.945312 7.140625 21.035156 7.175781 C 21.125 7.210938 21.140625 7.269531 21.082031 7.347656 C 21.046875 7.390625 21.003906 7.402344 20.953125 7.378906 C 20.902344 7.359375 20.878906 7.324219 20.886719 7.265625 Z M 20.886719 7.265625 " fill-opacity="1" fill-rule="nonzero"></path><path fill="#ead7ca" d="M 20.824219 5.621094 C 20.542969 5.511719 20.25 5.460938 19.945312 5.46875 C 19.640625 5.472656 19.351562 5.539062 19.074219 5.660156 C 18.796875 5.785156 18.550781 5.953125 18.339844 6.171875 C 18.132812 6.394531 17.972656 6.644531 17.863281 6.925781 C 17.75 7.210938 17.699219 7.503906 17.707031 7.808594 C 17.714844 8.109375 17.777344 8.402344 17.902344 8.679688 C 18.023438 8.957031 18.195312 9.199219 18.414062 9.410156 C 18.632812 9.617188 18.886719 9.777344 19.167969 9.886719 C 19.453125 9.996094 19.746094 10.050781 20.050781 10.042969 C 20.351562 10.035156 20.644531 9.96875 20.921875 9.847656 C 21.199219 9.726562 21.445312 9.554688 21.652344 9.335938 C 21.863281 9.113281 22.023438 8.863281 22.132812 8.582031 C 22.242188 8.296875 22.292969 8.003906 22.285156 7.703125 C 22.277344 7.398438 22.214844 7.109375 22.089844 6.832031 C 21.96875 6.554688 21.796875 6.3125 21.578125 6.101562 C 21.359375 5.890625 21.109375 5.730469 20.824219 5.621094 Z M 18.832031 8 L 19.300781 6.789062 C 19.335938 6.699219 19.398438 6.632812 19.488281 6.597656 C 19.578125 6.558594 19.664062 6.554688 19.753906 6.589844 L 20.96875 7.0625 C 21.058594 7.097656 21.121094 7.15625 21.160156 7.246094 C 21.199219 7.335938 21.199219 7.425781 21.164062 7.515625 L 20.695312 8.726562 C 20.660156 8.816406 20.597656 8.878906 20.507812 8.917969 C 20.421875 8.957031 20.332031 8.957031 20.242188 8.921875 L 19.03125 8.453125 C 18.9375 8.417969 18.875 8.355469 18.835938 8.265625 C 18.796875 8.179688 18.796875 8.089844 18.832031 8 Z M 18.832031 8 " fill-opacity="1" fill-rule="nonzero"></path><path fill="#ffffff" d="M 22.203125 6.785156 C 22.074219 6.492188 21.894531 6.238281 21.664062 6.019531 C 21.433594 5.800781 21.167969 5.632812 20.871094 5.519531 C 20.574219 5.40625 20.265625 5.351562 19.949219 5.359375 C 19.628906 5.367188 19.324219 5.433594 19.035156 5.5625 C 18.742188 5.691406 18.488281 5.871094 18.269531 6.101562 C 18.046875 6.328125 17.878906 6.59375 17.765625 6.890625 C 17.648438 7.183594 17.59375 7.492188 17.601562 7.808594 C 17.605469 8.128906 17.671875 8.433594 17.800781 8.722656 C 17.992188 9.160156 18.289062 9.507812 18.6875 9.765625 C 19.085938 10.027344 19.523438 10.15625 20 10.160156 C 20.496094 10.15625 20.949219 10.019531 21.359375 9.738281 C 21.769531 9.457031 22.0625 9.085938 22.242188 8.625 C 22.484375 8.003906 22.472656 7.390625 22.203125 6.785156 Z M 19.214844 9.777344 C 18.945312 9.675781 18.707031 9.523438 18.496094 9.324219 C 18.289062 9.125 18.125 8.894531 18.007812 8.628906 C 17.894531 8.367188 17.832031 8.089844 17.824219 7.804688 C 17.820312 7.515625 17.871094 7.238281 17.976562 6.96875 C 18.0625 6.726562 18.1875 6.507812 18.355469 6.3125 C 18.519531 6.117188 18.714844 5.953125 18.9375 5.828125 C 19.160156 5.699219 19.398438 5.613281 19.652344 5.574219 C 19.902344 5.53125 20.15625 5.53125 20.410156 5.578125 C 20.660156 5.625 20.898438 5.714844 21.117188 5.847656 C 21.339844 5.980469 21.53125 6.144531 21.691406 6.34375 C 21.851562 6.542969 21.976562 6.761719 22.058594 7.007812 C 22.140625 7.25 22.179688 7.5 22.175781 7.753906 C 22.171875 7.929688 22.152344 8.105469 22.109375 8.273438 C 22.066406 8.445312 22.003906 8.609375 21.921875 8.761719 C 21.839844 8.917969 21.738281 9.0625 21.621094 9.191406 C 21.503906 9.324219 21.375 9.4375 21.230469 9.539062 C 21.082031 9.636719 20.929688 9.71875 20.765625 9.78125 C 20.601562 9.84375 20.429688 9.882812 20.253906 9.90625 C 20.082031 9.925781 19.90625 9.925781 19.730469 9.90625 C 19.554688 9.882812 19.386719 9.839844 19.222656 9.777344 Z M 19.214844 9.777344 " fill-opacity="1" fill-rule="nonzero"></path><path fill="#ffffff" d="M 20.222656 7.128906 C 20.050781 7.0625 19.882812 7.066406 19.714844 7.140625 C 19.546875 7.214844 19.429688 7.335938 19.363281 7.507812 C 19.296875 7.679688 19.300781 7.851562 19.375 8.019531 C 19.449219 8.1875 19.570312 8.304688 19.742188 8.371094 C 19.914062 8.4375 20.085938 8.433594 20.253906 8.359375 C 20.421875 8.285156 20.539062 8.160156 20.605469 7.992188 C 20.671875 7.820312 20.667969 7.648438 20.59375 7.480469 C 20.519531 7.3125 20.394531 7.195312 20.222656 7.128906 Z M 20.40625 7.914062 C 20.363281 8.03125 20.28125 8.117188 20.164062 8.167969 C 20.050781 8.21875 19.933594 8.21875 19.816406 8.175781 C 19.699219 8.128906 19.613281 8.046875 19.5625 7.933594 C 19.511719 7.816406 19.511719 7.699219 19.554688 7.582031 C 19.601562 7.464844 19.683594 7.382812 19.796875 7.332031 C 19.914062 7.28125 20.03125 7.277344 20.148438 7.324219 C 20.261719 7.371094 20.34375 7.449219 20.394531 7.5625 C 20.445312 7.675781 20.449219 7.789062 20.40625 7.902344 Z M 20.40625 7.914062 " fill-opacity="1" fill-rule="nonzero"></path><path fill="#ffffff" d="M 21.089844 7.347656 C 21.054688 7.390625 21.011719 7.402344 20.960938 7.378906 C 20.910156 7.359375 20.886719 7.324219 20.894531 7.265625 C 20.902344 7.171875 20.953125 7.140625 21.042969 7.175781 C 21.132812 7.210938 21.148438 7.269531 21.089844 7.347656 Z M 21.089844 7.347656 " fill-opacity="1" fill-rule="nonzero"></path><path fill="#ffffff" d="M 21.058594 6.859375 L 19.820312 6.378906 C 19.675781 6.324219 19.535156 6.328125 19.398438 6.390625 C 19.257812 6.449219 19.160156 6.550781 19.105469 6.695312 L 18.621094 7.933594 C 18.566406 8.074219 18.570312 8.214844 18.632812 8.355469 C 18.695312 8.496094 18.796875 8.59375 18.9375 8.648438 L 20.179688 9.128906 C 20.324219 9.183594 20.464844 9.179688 20.601562 9.121094 C 20.742188 9.058594 20.839844 8.957031 20.894531 8.8125 L 21.375 7.574219 C 21.429688 7.433594 21.429688 7.292969 21.367188 7.152344 C 21.304688 7.011719 21.203125 6.914062 21.058594 6.859375 Z M 21.167969 7.511719 L 20.695312 8.722656 C 20.660156 8.8125 20.597656 8.875 20.511719 8.914062 C 20.421875 8.953125 20.332031 8.953125 20.242188 8.917969 L 19.03125 8.449219 C 18.941406 8.414062 18.878906 8.351562 18.839844 8.261719 C 18.800781 8.175781 18.800781 8.085938 18.835938 7.996094 L 19.304688 6.785156 C 19.339844 6.695312 19.402344 6.632812 19.492188 6.59375 C 19.582031 6.554688 19.667969 6.554688 19.757812 6.589844 L 20.972656 7.058594 C 21.0625 7.09375 21.125 7.15625 21.164062 7.246094 C 21.199219 7.332031 21.203125 7.421875 21.167969 7.511719 Z M 21.167969 7.511719 " fill-opacity="1" fill-rule="nonzero"></path><path fill="#ffffff" d="M 20.96875 7.058594 L 19.753906 6.585938 C 19.664062 6.550781 19.578125 6.554688 19.488281 6.59375 C 19.398438 6.628906 19.335938 6.695312 19.300781 6.785156 L 18.832031 7.996094 C 18.796875 8.085938 18.796875 8.171875 18.835938 8.261719 C 18.875 8.347656 18.9375 8.410156 19.027344 8.445312 L 20.234375 8.921875 C 20.324219 8.957031 20.414062 8.953125 20.503906 8.914062 C 20.589844 8.875 20.652344 8.8125 20.6875 8.722656 L 21.167969 7.511719 C 21.203125 7.421875 21.203125 7.332031 21.164062 7.242188 C 21.125 7.152344 21.058594 7.089844 20.96875 7.058594 Z M 20.605469 7.992188 C 20.539062 8.160156 20.421875 8.285156 20.253906 8.359375 C 20.085938 8.433594 19.914062 8.4375 19.742188 8.371094 C 19.570312 8.304688 19.449219 8.1875 19.375 8.019531 C 19.300781 7.851562 19.296875 7.679688 19.363281 7.507812 C 19.429688 7.335938 19.546875 7.214844 19.714844 7.140625 C 19.882812 7.066406 20.050781 7.0625 20.222656 7.128906 C 20.394531 7.195312 20.519531 7.3125 20.59375 7.480469 C 20.667969 7.648438 20.671875 7.820312 20.605469 7.992188 Z M 21.089844 7.347656 C 21.054688 7.390625 21.011719 7.402344 20.960938 7.378906 C 20.910156 7.359375 20.886719 7.324219 20.894531 7.265625 C 20.902344 7.171875 20.953125 7.140625 21.042969 7.175781 C 21.132812 7.210938 21.148438 7.269531 21.089844 7.347656 Z M 21.089844 7.347656 " fill-opacity="1" fill-rule="nonzero"></path><path fill="#ffffff" d="M 20.222656 7.128906 C 20.050781 7.0625 19.882812 7.066406 19.714844 7.140625 C 19.546875 7.214844 19.429688 7.335938 19.363281 7.507812 C 19.296875 7.679688 19.300781 7.851562 19.375 8.019531 C 19.449219 8.1875 19.570312 8.304688 19.742188 8.371094 C 19.914062 8.4375 20.085938 8.433594 20.253906 8.359375 C 20.421875 8.285156 20.539062 8.160156 20.605469 7.992188 C 20.671875 7.820312 20.667969 7.648438 20.59375 7.480469 C 20.519531 7.3125 20.394531 7.195312 20.222656 7.128906 Z M 20.40625 7.914062 C 20.363281 8.03125 20.28125 8.117188 20.164062 8.167969 C 20.050781 8.21875 19.933594 8.21875 19.816406 8.175781 C 19.699219 8.128906 19.613281 8.046875 19.5625 7.933594 C 19.511719 7.816406 19.511719 7.699219 19.554688 7.582031 C 19.601562 7.464844 19.683594 7.382812 19.796875 7.332031 C 19.914062 7.28125 20.03125 7.277344 20.148438 7.324219 C 20.261719 7.371094 20.34375 7.449219 20.394531 7.5625 C 20.445312 7.675781 20.449219 7.789062 20.40625 7.902344 Z M 20.40625 7.914062 " fill-opacity="1" fill-rule="nonzero"></path><path fill="#ffffff" d="M 21.089844 7.347656 C 21.054688 7.390625 21.011719 7.402344 20.960938 7.378906 C 20.910156 7.359375 20.886719 7.324219 20.894531 7.265625 C 20.902344 7.171875 20.953125 7.140625 21.042969 7.175781 C 21.132812 7.210938 21.148438 7.269531 21.089844 7.347656 Z M 21.089844 7.347656 " fill-opacity="1" fill-rule="nonzero"></path><path fill="#ffffff" d="M 20.222656 7.128906 C 20.050781 7.0625 19.882812 7.066406 19.714844 7.140625 C 19.546875 7.214844 19.429688 7.335938 19.363281 7.507812 C 19.296875 7.679688 19.300781 7.851562 19.375 8.019531 C 19.449219 8.1875 19.570312 8.304688 19.742188 8.371094 C 19.914062 8.4375 20.085938 8.433594 20.253906 8.359375 C 20.421875 8.285156 20.539062 8.160156 20.605469 7.992188 C 20.671875 7.820312 20.667969 7.648438 20.59375 7.480469 C 20.519531 7.3125 20.394531 7.195312 20.222656 7.128906 Z M 20.40625 7.914062 C 20.363281 8.03125 20.28125 8.117188 20.164062 8.167969 C 20.050781 8.21875 19.933594 8.21875 19.816406 8.175781 C 19.699219 8.128906 19.613281 8.046875 19.5625 7.933594 C 19.511719 7.816406 19.511719 7.699219 19.554688 7.582031 C 19.601562 7.464844 19.683594 7.382812 19.796875 7.332031 C 19.914062 7.28125 20.03125 7.277344 20.148438 7.324219 C 20.261719 7.371094 20.34375 7.449219 20.394531 7.5625 C 20.445312 7.675781 20.449219 7.789062 20.40625 7.902344 Z M 20.40625 7.914062 " fill-opacity="1" fill-rule="nonzero"></path><path fill="#ead7ca" d="M 20.40625 7.902344 C 20.363281 8.023438 20.28125 8.105469 20.164062 8.15625 C 20.050781 8.207031 19.933594 8.210938 19.816406 8.164062 C 19.699219 8.117188 19.613281 8.039062 19.5625 7.921875 C 19.511719 7.808594 19.511719 7.691406 19.554688 7.574219 C 19.601562 7.457031 19.683594 7.371094 19.796875 7.320312 C 19.914062 7.269531 20.03125 7.269531 20.148438 7.316406 C 20.265625 7.359375 20.347656 7.441406 20.398438 7.554688 C 20.449219 7.671875 20.453125 7.785156 20.40625 7.902344 Z M 20.40625 7.902344 " fill-opacity="1" fill-rule="nonzero"></path><path fill="#ffffff" d="M 21.089844 7.347656 C 21.054688 7.390625 21.011719 7.402344 20.960938 7.378906 C 20.910156 7.359375 20.886719 7.324219 20.894531 7.265625 C 20.902344 7.171875 20.953125 7.140625 21.042969 7.175781 C 21.132812 7.210938 21.148438 7.269531 21.089844 7.347656 Z M 21.089844 7.347656 " fill-opacity="1" fill-rule="nonzero"></path><path fill="#ead7ca" d="M 26.914062 12.855469 C 26.914062 13.160156 26.855469 13.449219 26.742188 13.726562 C 26.625 14.007812 26.460938 14.253906 26.246094 14.464844 C 26.03125 14.679688 25.785156 14.84375 25.507812 14.960938 C 25.226562 15.074219 24.9375 15.132812 24.636719 15.132812 C 24.332031 15.132812 24.042969 15.074219 23.761719 14.960938 C 23.484375 14.84375 23.238281 14.679688 23.023438 14.464844 C 22.8125 14.253906 22.644531 14.007812 22.53125 13.726562 C 22.414062 13.449219 22.355469 13.160156 22.355469 12.855469 C 22.355469 12.554688 22.414062 12.265625 22.53125 11.984375 C 22.644531 11.707031 22.8125 11.460938 23.023438 11.246094 C 23.238281 11.035156 23.484375 10.871094 23.761719 10.753906 C 24.042969 10.640625 24.332031 10.582031 24.636719 10.582031 C 24.9375 10.582031 25.226562 10.640625 25.507812 10.753906 C 25.785156 10.871094 26.03125 11.035156 26.246094 11.246094 C 26.460938 11.460938 26.625 11.707031 26.742188 11.984375 C 26.855469 12.265625 26.914062 12.554688 26.914062 12.855469 Z M 26.914062 12.855469 " fill-opacity="1" fill-rule="nonzero"></path><g clip-path="url(#8f1531afb2)"><path fill="#ffffff" d="M 24.640625 15.25 C 24.355469 15.25 24.078125 15.199219 23.8125 15.101562 C 23.542969 15.003906 23.300781 14.863281 23.085938 14.679688 C 22.867188 14.496094 22.6875 14.28125 22.550781 14.03125 C 22.410156 13.785156 22.316406 13.519531 22.273438 13.238281 C 22.226562 12.957031 22.230469 12.679688 22.285156 12.398438 C 22.339844 12.121094 22.441406 11.859375 22.589844 11.617188 C 22.738281 11.371094 22.921875 11.160156 23.144531 10.984375 C 23.367188 10.808594 23.613281 10.675781 23.886719 10.585938 C 24.15625 10.496094 24.433594 10.457031 24.71875 10.464844 C 25.003906 10.476562 25.277344 10.535156 25.539062 10.640625 C 25.804688 10.75 26.039062 10.898438 26.25 11.089844 C 26.460938 11.285156 26.632812 11.503906 26.761719 11.757812 C 26.855469 11.941406 26.925781 12.132812 26.972656 12.332031 C 27.019531 12.53125 27.035156 12.734375 27.03125 12.941406 C 27.023438 13.144531 26.992188 13.34375 26.929688 13.542969 C 26.871094 13.738281 26.789062 13.925781 26.683594 14.101562 C 26.578125 14.277344 26.449219 14.433594 26.300781 14.578125 C 26.15625 14.71875 25.992188 14.839844 25.8125 14.941406 C 25.632812 15.042969 25.445312 15.117188 25.246094 15.171875 C 25.046875 15.222656 24.84375 15.25 24.640625 15.25 Z M 24.640625 10.695312 C 24.324219 10.699219 24.019531 10.765625 23.734375 10.898438 C 23.445312 11.03125 23.199219 11.21875 22.992188 11.457031 C 22.789062 11.699219 22.640625 11.972656 22.558594 12.277344 C 22.472656 12.582031 22.453125 12.890625 22.503906 13.203125 C 22.554688 13.515625 22.667969 13.804688 22.847656 14.066406 C 23.023438 14.328125 23.246094 14.542969 23.519531 14.707031 C 23.789062 14.871094 24.082031 14.972656 24.398438 15.007812 C 24.710938 15.042969 25.019531 15.011719 25.320312 14.914062 C 25.621094 14.8125 25.886719 14.65625 26.121094 14.4375 C 26.351562 14.222656 26.527344 13.96875 26.644531 13.675781 C 26.765625 13.382812 26.820312 13.078125 26.804688 12.761719 C 26.789062 12.445312 26.710938 12.144531 26.5625 11.863281 C 26.378906 11.503906 26.109375 11.21875 25.761719 11.007812 C 25.414062 10.800781 25.039062 10.695312 24.632812 10.695312 Z M 24.640625 10.695312 " fill-opacity="1" fill-rule="nonzero"></path></g><path fill="#ffffff" d="M 24.492188 13.996094 L 24.035156 14.234375 L 23.464844 13.308594 L 23.832031 13.046875 C 23.921875 12.984375 24.027344 12.902344 24.027344 12.902344 C 24.027344 12.902344 24.101562 12.582031 24.148438 12.3125 C 24.191406 12.039062 24.257812 10.960938 24.445312 11.300781 C 24.582031 11.609375 24.667969 11.929688 24.710938 12.261719 L 25.328125 11.972656 L 26.074219 13.332031 C 25.832031 13.507812 25.578125 13.664062 25.3125 13.800781 Z M 24.492188 13.996094 " fill-opacity="1" fill-rule="nonzero"></path><path fill="#ffffff" d="M 23.988281 14.390625 L 23.308594 13.28125 L 23.761719 12.953125 C 23.820312 12.917969 23.878906 12.867188 23.914062 12.839844 C 23.933594 12.746094 23.988281 12.507812 24.023438 12.300781 C 24.023438 12.25 24.042969 12.164062 24.054688 12.066406 C 24.128906 11.394531 24.179688 11.164062 24.339844 11.132812 C 24.394531 11.121094 24.472656 11.132812 24.535156 11.257812 C 24.660156 11.527344 24.746094 11.808594 24.789062 12.101562 L 25.367188 11.828125 L 26.214844 13.375 L 26.132812 13.4375 C 25.886719 13.613281 25.628906 13.769531 25.359375 13.910156 L 25.335938 13.910156 L 24.527344 14.105469 Z M 23.621094 13.339844 L 24.078125 14.078125 L 24.453125 13.882812 L 25.269531 13.6875 C 25.496094 13.570312 25.707031 13.441406 25.914062 13.292969 L 25.269531 12.113281 L 24.609375 12.429688 L 24.589844 12.269531 C 24.550781 11.984375 24.480469 11.710938 24.378906 11.441406 C 24.339844 11.617188 24.304688 11.921875 24.285156 12.074219 C 24.273438 12.175781 24.261719 12.273438 24.253906 12.320312 C 24.210938 12.589844 24.136719 12.898438 24.132812 12.910156 L 24.132812 12.949219 L 24.105469 12.972656 C 24.105469 12.972656 24 13.0625 23.910156 13.125 Z M 23.621094 13.339844 " fill-opacity="1" fill-rule="nonzero"></path><g clip-path="url(#caaea3836f)"><path fill="#ead7ca" d="M 27.113281 20.046875 C 27.113281 20.347656 27.058594 20.636719 26.941406 20.917969 C 26.824219 21.195312 26.660156 21.441406 26.449219 21.65625 C 26.234375 21.867188 25.988281 22.03125 25.707031 22.148438 C 25.429688 22.261719 25.136719 22.320312 24.835938 22.320312 C 24.535156 22.320312 24.242188 22.261719 23.964844 22.148438 C 23.683594 22.03125 23.4375 21.867188 23.226562 21.65625 C 23.011719 21.441406 22.847656 21.195312 22.730469 20.917969 C 22.617188 20.636719 22.558594 20.347656 22.558594 20.046875 C 22.558594 19.742188 22.617188 19.453125 22.730469 19.175781 C 22.847656 18.894531 23.011719 18.648438 23.226562 18.4375 C 23.4375 18.222656 23.683594 18.058594 23.964844 17.941406 C 24.242188 17.828125 24.535156 17.769531 24.835938 17.769531 C 25.136719 17.769531 25.429688 17.828125 25.707031 17.941406 C 25.988281 18.058594 26.234375 18.222656 26.449219 18.4375 C 26.660156 18.648438 26.824219 18.894531 26.941406 19.175781 C 27.058594 19.453125 27.113281 19.742188 27.113281 20.046875 Z M 27.113281 20.046875 " fill-opacity="1" fill-rule="nonzero"></path><path fill="#ffffff" d="M 24.839844 22.449219 C 24.652344 22.449219 24.464844 22.429688 24.28125 22.382812 C 24.097656 22.339844 23.917969 22.277344 23.75 22.191406 C 23.582031 22.105469 23.425781 22 23.28125 21.878906 C 23.136719 21.757812 23.007812 21.617188 22.898438 21.464844 C 22.785156 21.3125 22.695312 21.148438 22.621094 20.976562 C 22.546875 20.800781 22.496094 20.621094 22.46875 20.433594 C 22.4375 20.246094 22.429688 20.058594 22.445312 19.871094 C 22.460938 19.683594 22.496094 19.496094 22.554688 19.316406 C 22.699219 18.855469 22.964844 18.476562 23.34375 18.175781 C 23.722656 17.871094 24.152344 17.703125 24.636719 17.660156 C 25.117188 17.621094 25.570312 17.71875 25.996094 17.949219 C 26.417969 18.183594 26.742188 18.515625 26.964844 18.945312 C 27.0625 19.128906 27.132812 19.320312 27.175781 19.519531 C 27.222656 19.722656 27.242188 19.925781 27.238281 20.128906 C 27.230469 20.335938 27.199219 20.539062 27.140625 20.734375 C 27.082031 20.933594 26.996094 21.121094 26.890625 21.296875 C 26.785156 21.472656 26.65625 21.632812 26.507812 21.773438 C 26.359375 21.917969 26.195312 22.039062 26.015625 22.140625 C 25.835938 22.242188 25.648438 22.320312 25.449219 22.371094 C 25.25 22.421875 25.046875 22.449219 24.839844 22.449219 Z M 24.839844 17.894531 C 24.523438 17.890625 24.222656 17.957031 23.933594 18.089844 C 23.644531 18.222656 23.398438 18.40625 23.191406 18.648438 C 22.984375 18.886719 22.839844 19.160156 22.753906 19.464844 C 22.664062 19.769531 22.648438 20.078125 22.695312 20.390625 C 22.746094 20.703125 22.859375 20.992188 23.035156 21.253906 C 23.210938 21.515625 23.433594 21.730469 23.703125 21.898438 C 23.972656 22.0625 24.265625 22.164062 24.578125 22.203125 C 24.894531 22.238281 25.203125 22.210938 25.503906 22.113281 C 25.804688 22.015625 26.070312 21.859375 26.304688 21.644531 C 26.535156 21.429688 26.714844 21.175781 26.835938 20.882812 C 26.957031 20.589844 27.011719 20.285156 26.996094 19.96875 C 26.984375 19.652344 26.90625 19.355469 26.761719 19.070312 C 26.492188 18.539062 26.070312 18.183594 25.5 18.003906 C 25.285156 17.929688 25.0625 17.890625 24.835938 17.882812 Z M 24.839844 17.894531 " fill-opacity="1" fill-rule="nonzero"></path></g><path fill="#ffffff" d="M 25.386719 21.023438 C 25.386719 21.023438 23.175781 20.855469 23.511719 19.832031 C 23.726562 19.167969 24.589844 19.570312 24.589844 19.570312 C 24.589844 19.570312 24.710938 18.585938 25.3125 18.785156 C 26.113281 19.039062 25.746094 20.574219 25.386719 21.023438 Z M 25.386719 21.023438 " fill-opacity="1" fill-rule="nonzero"></path><path fill="#ffffff" d="M 25.4375 21.144531 L 25.378906 21.144531 C 25.316406 21.144531 23.886719 21.023438 23.472656 20.410156 C 23.34375 20.21875 23.320312 20.015625 23.398438 19.800781 C 23.453125 19.609375 23.570312 19.472656 23.75 19.394531 C 24.003906 19.3125 24.253906 19.316406 24.5 19.414062 C 24.542969 19.132812 24.675781 18.902344 24.894531 18.71875 C 25.039062 18.628906 25.191406 18.613281 25.351562 18.671875 C 25.617188 18.765625 25.785156 18.953125 25.851562 19.226562 C 26.035156 19.851562 25.746094 20.769531 25.476562 21.101562 Z M 24.0625 19.570312 C 23.984375 19.570312 23.910156 19.582031 23.839844 19.613281 C 23.722656 19.664062 23.652344 19.753906 23.621094 19.875 C 23.5625 20.019531 23.578125 20.15625 23.664062 20.28125 C 23.941406 20.695312 24.90625 20.871094 25.332031 20.910156 C 25.554688 20.582031 25.773438 19.796875 25.628906 19.296875 C 25.582031 19.101562 25.464844 18.96875 25.273438 18.902344 C 25.183594 18.867188 25.097656 18.875 25.015625 18.925781 C 24.820312 19.054688 24.722656 19.453125 24.703125 19.59375 L 24.683594 19.753906 L 24.539062 19.6875 C 24.386719 19.617188 24.230469 19.574219 24.0625 19.5625 Z M 24.0625 19.570312 " fill-opacity="1" fill-rule="nonzero"></path><path fill="#ffffff" d="M 5.394531 18.476562 L 5.292969 18.265625 C 6.371094 17.71875 7.382812 17.070312 8.328125 16.320312 C 9.792969 15.160156 11.699219 13.261719 12.476562 10.792969 L 12.699219 10.863281 C 11.914062 13.390625 9.960938 15.324219 8.46875 16.503906 C 7.511719 17.265625 6.484375 17.921875 5.394531 18.476562 Z M 5.394531 18.476562 " fill-opacity="1" fill-rule="nonzero"></path><path fill="#ffffff" d="M 18.871094 22.882812 C 14.820312 21.539062 11.683594 22.863281 11.652344 22.882812 L 11.558594 22.667969 C 11.589844 22.652344 14.808594 21.292969 18.945312 22.667969 Z M 18.871094 22.882812 " fill-opacity="1" fill-rule="nonzero"></path><path fill="#ffffff" d="M 6.03125 24.339844 C 3.902344 22.546875 4.101562 20.40625 4.101562 20.316406 L 4.332031 20.339844 L 4.21875 20.328125 L 4.332031 20.339844 C 4.332031 20.363281 4.136719 22.453125 6.171875 24.164062 Z M 6.03125 24.339844 " fill-opacity="1" fill-rule="nonzero"></path></svg>