<svg xmlns="http://www.w3.org/2000/svg" xmlns:xlink="http://www.w3.org/1999/xlink" width="43" viewBox="0 0 32.25 32.249998" height="43" preserveAspectRatio="xMidYMid meet"><defs><clipPath id="a47c2a9086"><path d="M 0 0 L 31.515625 0 L 31.515625 31.515625 L 0 31.515625 Z M 0 0 " clip-rule="nonzero"></path></clipPath><clipPath id="8b3c902591"><path d="M 13 5.3125 L 26.570312 5.3125 L 26.570312 20 L 13 20 Z M 13 5.3125 " clip-rule="nonzero"></path></clipPath><clipPath id="ae72e9d6c9"><path d="M 5.3125 12 L 19 12 L 19 26.570312 L 5.3125 26.570312 Z M 5.3125 12 " clip-rule="nonzero"></path></clipPath></defs><g clip-path="url(#a47c2a9086)"><path fill="#ffffff" d="M 0 0 L 31.515625 0 L 31.515625 31.515625 L 0 31.515625 Z M 0 0 " fill-opacity="1" fill-rule="nonzero"></path><path fill="#ffbd59" d="M 0 0 L 31.515625 0 L 31.515625 31.515625 L 0 31.515625 Z M 0 0 " fill-opacity="1" fill-rule="nonzero"></path></g><g clip-path="url(#8b3c902591)"><path fill="#ffffff" d="M 20.046875 19.804688 C 19.890625 19.804688 19.761719 19.742188 19.667969 19.617188 L 19.292969 19.136719 C 19.210938 19.03125 19.175781 18.914062 19.191406 18.78125 C 19.203125 18.648438 19.261719 18.539062 19.367188 18.453125 C 19.472656 18.371094 19.589844 18.335938 19.722656 18.347656 C 19.855469 18.363281 19.964844 18.421875 20.046875 18.527344 L 21.878906 16.109375 C 21.976562 15.984375 22.101562 15.921875 22.261719 15.921875 L 25.121094 15.921875 C 25.253906 15.921875 25.367188 15.875 25.460938 15.78125 C 25.554688 15.6875 25.601562 15.574219 25.601562 15.4375 L 25.601562 6.761719 C 25.601562 6.628906 25.554688 6.515625 25.460938 6.421875 C 25.367188 6.328125 25.253906 6.28125 25.121094 6.28125 L 14.492188 6.28125 C 14.359375 6.28125 14.246094 6.328125 14.152344 6.421875 C 14.054688 6.515625 14.007812 6.628906 14.007812 6.761719 L 14.007812 11.109375 C 14.007812 11.246094 13.960938 11.359375 13.867188 11.453125 C 13.773438 11.546875 13.660156 11.59375 13.527344 11.59375 C 13.394531 11.59375 13.277344 11.546875 13.183594 11.453125 C 13.089844 11.359375 13.042969 11.246094 13.042969 11.109375 L 13.042969 6.761719 C 13.042969 6.570312 13.078125 6.386719 13.152344 6.207031 C 13.226562 6.03125 13.332031 5.875 13.46875 5.738281 C 13.605469 5.601562 13.761719 5.496094 13.9375 5.425781 C 14.117188 5.351562 14.300781 5.3125 14.492188 5.3125 L 25.121094 5.3125 C 25.3125 5.3125 25.496094 5.351562 25.675781 5.425781 C 25.851562 5.496094 26.007812 5.601562 26.144531 5.738281 C 26.28125 5.875 26.386719 6.03125 26.460938 6.207031 C 26.53125 6.386719 26.570312 6.570312 26.570312 6.761719 L 26.570312 15.457031 C 26.570312 15.652344 26.53125 15.835938 26.460938 16.011719 C 26.386719 16.191406 26.28125 16.347656 26.144531 16.484375 C 26.007812 16.621094 25.851562 16.722656 25.675781 16.796875 C 25.496094 16.871094 25.3125 16.90625 25.121094 16.90625 L 22.496094 16.90625 L 20.429688 19.617188 C 20.332031 19.742188 20.207031 19.804688 20.046875 19.804688 Z M 20.046875 19.804688 " fill-opacity="1" fill-rule="nonzero"></path></g><path fill="#ffffff" d="M 17.390625 11.59375 C 17.257812 11.59375 17.144531 11.546875 17.050781 11.453125 C 16.957031 11.359375 16.90625 11.246094 16.90625 11.109375 C 16.910156 10.980469 16.863281 10.867188 16.769531 10.777344 C 16.675781 10.679688 16.558594 10.628906 16.425781 10.628906 C 16.292969 10.628906 16.175781 10.675781 16.082031 10.769531 C 15.988281 10.863281 15.941406 10.976562 15.941406 11.109375 C 15.941406 11.246094 15.894531 11.359375 15.800781 11.453125 C 15.707031 11.546875 15.59375 11.59375 15.457031 11.59375 C 15.324219 11.59375 15.210938 11.546875 15.117188 11.453125 C 15.023438 11.359375 14.976562 11.246094 14.976562 11.109375 C 14.976562 10.917969 15.011719 10.734375 15.085938 10.554688 C 15.160156 10.378906 15.265625 10.222656 15.398438 10.085938 C 15.535156 9.949219 15.691406 9.84375 15.871094 9.773438 C 16.046875 9.699219 16.234375 9.660156 16.425781 9.660156 C 16.617188 9.660156 16.800781 9.699219 16.980469 9.773438 C 17.15625 9.84375 17.3125 9.949219 17.449219 10.085938 C 17.585938 10.222656 17.691406 10.378906 17.765625 10.554688 C 17.835938 10.734375 17.875 10.917969 17.875 11.109375 C 17.875 11.246094 17.828125 11.359375 17.734375 11.453125 C 17.636719 11.546875 17.523438 11.59375 17.390625 11.59375 Z M 17.390625 11.59375 " fill-opacity="1" fill-rule="nonzero"></path><path fill="#ffffff" d="M 23.1875 14.976562 L 19.804688 14.976562 C 19.671875 14.976562 19.558594 14.929688 19.464844 14.835938 C 19.371094 14.738281 19.324219 14.625 19.324219 14.492188 C 19.324219 14.359375 19.371094 14.246094 19.464844 14.152344 C 19.558594 14.054688 19.671875 14.007812 19.804688 14.007812 L 23.1875 14.007812 C 23.320312 14.007812 23.433594 13.960938 23.53125 13.867188 C 23.625 13.773438 23.671875 13.660156 23.671875 13.527344 L 23.671875 11.109375 C 23.671875 10.976562 23.625 10.863281 23.53125 10.769531 C 23.433594 10.675781 23.320312 10.628906 23.1875 10.628906 L 20.773438 10.628906 C 20.640625 10.628906 20.523438 10.582031 20.429688 10.488281 C 20.335938 10.390625 20.289062 10.277344 20.289062 10.144531 L 20.289062 8.695312 C 20.289062 8.5625 20.242188 8.449219 20.148438 8.355469 C 20.054688 8.257812 19.941406 8.210938 19.804688 8.210938 C 19.671875 8.210938 19.558594 8.257812 19.464844 8.355469 C 19.371094 8.449219 19.324219 8.5625 19.324219 8.695312 L 19.324219 11.109375 C 19.324219 11.246094 19.277344 11.359375 19.183594 11.453125 C 19.085938 11.546875 18.972656 11.59375 18.839844 11.59375 C 18.707031 11.59375 18.59375 11.546875 18.5 11.453125 C 18.40625 11.359375 18.355469 11.246094 18.355469 11.109375 L 18.355469 8.695312 C 18.355469 8.503906 18.394531 8.320312 18.46875 8.140625 C 18.542969 7.964844 18.644531 7.804688 18.78125 7.671875 C 18.917969 7.535156 19.074219 7.429688 19.25 7.355469 C 19.429688 7.28125 19.613281 7.246094 19.804688 7.246094 C 20 7.246094 20.183594 7.28125 20.359375 7.355469 C 20.539062 7.429688 20.695312 7.535156 20.832031 7.671875 C 20.96875 7.804688 21.070312 7.964844 21.144531 8.140625 C 21.21875 8.320312 21.253906 8.503906 21.253906 8.695312 L 21.253906 9.660156 L 23.1875 9.660156 C 23.378906 9.660156 23.566406 9.699219 23.742188 9.773438 C 23.921875 9.84375 24.078125 9.949219 24.210938 10.085938 C 24.347656 10.222656 24.453125 10.378906 24.527344 10.554688 C 24.601562 10.734375 24.636719 10.917969 24.636719 11.109375 L 24.636719 13.527344 C 24.636719 13.71875 24.601562 13.902344 24.527344 14.082031 C 24.453125 14.257812 24.347656 14.414062 24.210938 14.550781 C 24.078125 14.6875 23.921875 14.792969 23.742188 14.867188 C 23.566406 14.9375 23.378906 14.976562 23.1875 14.976562 Z M 23.1875 14.976562 " fill-opacity="1" fill-rule="nonzero"></path><g clip-path="url(#ae72e9d6c9)"><path fill="#ffffff" d="M 12.320312 26.570312 C 12.160156 26.570312 12.03125 26.507812 11.933594 26.382812 L 9.863281 23.671875 L 6.761719 23.671875 C 6.570312 23.671875 6.386719 23.632812 6.207031 23.5625 C 6.03125 23.488281 5.875 23.382812 5.738281 23.246094 C 5.601562 23.109375 5.496094 22.953125 5.425781 22.777344 C 5.351562 22.597656 5.3125 22.414062 5.3125 22.222656 L 5.3125 13.527344 C 5.3125 13.335938 5.351562 13.148438 5.425781 12.972656 C 5.496094 12.792969 5.601562 12.636719 5.738281 12.5 C 5.875 12.367188 6.03125 12.261719 6.207031 12.1875 C 6.386719 12.113281 6.570312 12.078125 6.761719 12.078125 L 17.390625 12.078125 C 17.582031 12.078125 17.769531 12.113281 17.945312 12.1875 C 18.125 12.261719 18.28125 12.367188 18.414062 12.5 C 18.550781 12.636719 18.65625 12.792969 18.730469 12.972656 C 18.804688 13.148438 18.839844 13.335938 18.839844 13.527344 L 18.839844 22.222656 C 18.839844 22.414062 18.804688 22.597656 18.730469 22.777344 C 18.65625 22.953125 18.550781 23.109375 18.414062 23.246094 C 18.28125 23.382812 18.125 23.488281 17.945312 23.5625 C 17.769531 23.632812 17.582031 23.671875 17.390625 23.671875 L 14.773438 23.671875 L 12.699219 26.382812 C 12.605469 26.507812 12.476562 26.570312 12.320312 26.570312 Z M 6.761719 13.042969 C 6.628906 13.042969 6.515625 13.089844 6.421875 13.183594 C 6.328125 13.277344 6.28125 13.394531 6.28125 13.527344 L 6.28125 22.222656 C 6.28125 22.355469 6.328125 22.46875 6.421875 22.5625 C 6.515625 22.65625 6.628906 22.703125 6.761719 22.703125 L 10.101562 22.703125 C 10.257812 22.707031 10.386719 22.769531 10.484375 22.894531 L 12.320312 25.308594 L 14.148438 22.894531 C 14.246094 22.769531 14.375 22.707031 14.53125 22.703125 L 17.390625 22.703125 C 17.523438 22.703125 17.636719 22.65625 17.734375 22.5625 C 17.828125 22.46875 17.875 22.355469 17.875 22.222656 L 17.875 13.527344 C 17.875 13.394531 17.828125 13.277344 17.734375 13.183594 C 17.636719 13.089844 17.523438 13.042969 17.390625 13.042969 Z M 6.761719 13.042969 " fill-opacity="1" fill-rule="nonzero"></path></g><path fill="#ffffff" d="M 12.078125 22.136719 C 11.945312 22.136719 11.828125 22.089844 11.734375 21.996094 L 9.136719 19.394531 C 7.566406 17.832031 7.6875 16.265625 8.492188 15.476562 C 9.300781 14.691406 10.628906 14.574219 12.078125 15.800781 C 13.527344 14.566406 14.9375 14.734375 15.671875 15.464844 C 16.40625 16.191406 16.589844 17.820312 15.015625 19.394531 L 12.414062 21.996094 C 12.320312 22.085938 12.207031 22.132812 12.078125 22.136719 Z M 9.925781 15.878906 C 9.636719 15.871094 9.386719 15.960938 9.171875 16.160156 C 8.691406 16.640625 8.769531 17.667969 9.816406 18.714844 L 12.078125 20.96875 L 14.332031 18.714844 C 15.386719 17.65625 15.457031 16.621094 14.976562 16.148438 C 14.492188 15.675781 13.46875 15.742188 12.410156 16.800781 C 12.316406 16.898438 12.203125 16.945312 12.066406 16.945312 C 11.933594 16.945312 11.820312 16.898438 11.722656 16.800781 C 11.25 16.25 10.652344 15.941406 9.925781 15.878906 Z M 9.925781 15.878906 " fill-opacity="1" fill-rule="nonzero"></path></svg>