<svg xmlns="http://www.w3.org/2000/svg" xmlns:xlink="http://www.w3.org/1999/xlink" width="43" viewBox="0 0 32.25 32.249998" height="43" preserveAspectRatio="xMidYMid meet"><defs><clipPath id="34448d9bd2"><path d="M 0 0 L 31.515625 0 L 31.515625 31.515625 L 0 31.515625 Z M 0 0 " clip-rule="nonzero"></path></clipPath><clipPath id="b95b60ef27"><path d="M 4.890625 7 L 26.882812 7 L 26.882812 25 L 4.890625 25 Z M 4.890625 7 " clip-rule="nonzero"></path></clipPath><clipPath id="41563d8bf5"><path d="M 4.890625 21 L 26.882812 21 L 26.882812 23 L 4.890625 23 Z M 4.890625 21 " clip-rule="nonzero"></path></clipPath><clipPath id="09a5c6260a"><path d="M 11 25 L 21 25 L 21 26.882812 L 11 26.882812 Z M 11 25 " clip-rule="nonzero"></path></clipPath><clipPath id="dadacdffff"><path d="M 12 23 L 15 23 L 15 26.882812 L 12 26.882812 Z M 12 23 " clip-rule="nonzero"></path></clipPath><clipPath id="de36b51079"><path d="M 17 23 L 20 23 L 20 26.882812 L 17 26.882812 Z M 17 23 " clip-rule="nonzero"></path></clipPath><clipPath id="fa0633338a"><path d="M 17.328125 15 L 20 15 L 20 20 L 17.328125 20 Z M 17.328125 15 " clip-rule="nonzero"></path></clipPath><clipPath id="aae53919d4"><path d="M 23 15 L 25.390625 15 L 25.390625 20 L 23 20 Z M 23 15 " clip-rule="nonzero"></path></clipPath><clipPath id="461fbf5a38"><path d="M 20 14.238281 L 23 14.238281 L 23 20.835938 L 20 20.835938 Z M 20 14.238281 " clip-rule="nonzero"></path></clipPath></defs><g clip-path="url(#34448d9bd2)"><path fill="#ffffff" d="M 0 0 L 31.515625 0 L 31.515625 31.515625 L 0 31.515625 Z M 0 0 " fill-opacity="1" fill-rule="nonzero"></path><path fill="#b69b88" d="M 0 0 L 31.515625 0 L 31.515625 31.515625 L 0 31.515625 Z M 0 0 " fill-opacity="1" fill-rule="nonzero"></path></g><g clip-path="url(#b95b60ef27)"><path fill="#ffffff" d="M 25.9375 23.164062 L 5.835938 23.164062 L 5.835938 8.546875 L 17.558594 8.546875 C 17.8125 8.546875 18.015625 8.34375 18.015625 8.089844 C 18.015625 7.839844 17.8125 7.632812 17.558594 7.632812 L 5.378906 7.632812 C 5.128906 7.632812 4.921875 7.839844 4.921875 8.089844 L 4.921875 23.621094 C 4.921875 23.875 5.128906 24.078125 5.378906 24.078125 L 26.394531 24.078125 C 26.644531 24.078125 26.851562 23.875 26.851562 23.621094 L 26.851562 8.089844 C 26.851562 7.839844 26.644531 7.632812 26.394531 7.632812 C 26.140625 7.632812 25.9375 7.839844 25.9375 8.089844 Z M 25.9375 23.164062 " fill-opacity="1" fill-rule="nonzero"></path></g><g clip-path="url(#41563d8bf5)"><path fill="#ffffff" d="M 5.378906 22.25 L 26.394531 22.25 C 26.644531 22.25 26.851562 22.046875 26.851562 21.796875 C 26.851562 21.542969 26.644531 21.339844 26.394531 21.339844 L 5.378906 21.339844 C 5.128906 21.339844 4.921875 21.542969 4.921875 21.796875 C 4.921875 22.046875 5.128906 22.25 5.378906 22.25 Z M 5.378906 22.25 " fill-opacity="1" fill-rule="nonzero"></path></g><g clip-path="url(#09a5c6260a)"><path fill="#ffffff" d="M 11.773438 26.820312 L 20 26.820312 C 20.25 26.820312 20.453125 26.617188 20.453125 26.363281 C 20.453125 26.109375 20.25 25.90625 20 25.90625 L 11.773438 25.90625 C 11.523438 25.90625 11.320312 26.109375 11.320312 26.363281 C 11.320312 26.617188 11.523438 26.820312 11.773438 26.820312 Z M 11.773438 26.820312 " fill-opacity="1" fill-rule="nonzero"></path></g><g clip-path="url(#dadacdffff)"><path fill="#ffffff" d="M 13.121094 26.507812 L 14.035156 23.765625 C 14.117188 23.527344 13.984375 23.269531 13.746094 23.1875 C 13.507812 23.109375 13.25 23.238281 13.167969 23.476562 L 12.257812 26.21875 C 12.175781 26.457031 12.304688 26.71875 12.542969 26.796875 C 12.785156 26.878906 13.042969 26.746094 13.121094 26.507812 Z M 13.121094 26.507812 " fill-opacity="1" fill-rule="nonzero"></path></g><g clip-path="url(#de36b51079)"><path fill="#ffffff" d="M 18.652344 26.507812 L 17.738281 23.765625 C 17.65625 23.527344 17.789062 23.269531 18.027344 23.1875 C 18.265625 23.109375 18.527344 23.238281 18.605469 23.476562 L 19.519531 26.21875 C 19.597656 26.457031 19.46875 26.71875 19.230469 26.796875 C 18.988281 26.878906 18.730469 26.746094 18.652344 26.507812 Z M 18.652344 26.507812 " fill-opacity="1" fill-rule="nonzero"></path></g><path fill="#ffffff" d="M 24.457031 8.992188 L 15.109375 17.199219 C 15.019531 17.277344 14.605469 16.6875 14.140625 16.230469 C 13.636719 15.734375 13.089844 15.359375 13.171875 15.265625 L 21.378906 5.914062 C 22.226562 4.960938 23.652344 4.917969 24.550781 5.820312 C 25.457031 6.722656 25.410156 8.144531 24.457031 8.992188 Z M 23.90625 6.464844 C 23.375 5.9375 22.5625 5.960938 22.066406 6.519531 L 14.140625 15.542969 L 14.828125 16.230469 L 23.851562 8.308594 C 24.410156 7.808594 24.4375 6.996094 23.90625 6.464844 Z M 23.90625 6.464844 " fill-opacity="1" fill-rule="nonzero"></path><path fill="#ffffff" d="M 9.25 19.421875 C 8.976562 19.203125 9.046875 18.765625 9.375 18.640625 C 9.960938 18.417969 10.269531 18 10.683594 17.042969 C 11.054688 16.1875 11.15625 15.988281 11.445312 15.695312 C 12.339844 14.800781 13.785156 14.800781 14.679688 15.695312 C 15.570312 16.585938 15.570312 18.035156 14.679688 18.925781 C 13.476562 20.125 10.816406 20.679688 9.25 19.421875 Z M 14.03125 18.277344 C 14.566406 17.742188 14.566406 16.878906 14.03125 16.339844 C 13.496094 15.804688 12.628906 15.804688 12.09375 16.339844 C 11.921875 16.511719 11.832031 16.6875 11.523438 17.40625 C 11.1875 18.179688 10.886719 18.695312 10.460938 19.054688 C 11.644531 19.472656 13.277344 19.035156 14.03125 18.277344 Z M 14.03125 18.277344 " fill-opacity="1" fill-rule="nonzero"></path><path fill="#ffffff" d="M 15.074219 13.980469 L 16.390625 15.289062 C 16.570312 15.46875 16.859375 15.46875 17.035156 15.289062 C 17.214844 15.113281 17.214844 14.820312 17.035156 14.644531 L 15.71875 13.332031 C 15.539062 13.152344 15.25 13.15625 15.070312 13.335938 C 14.890625 13.511719 14.894531 13.800781 15.074219 13.980469 Z M 15.074219 13.980469 " fill-opacity="1" fill-rule="nonzero"></path><g clip-path="url(#fa0633338a)"><path fill="#ffffff" d="M 19.363281 19.457031 C 19.300781 19.457031 19.238281 19.433594 19.191406 19.386719 L 17.339844 17.554688 L 19.191406 15.722656 C 19.285156 15.628906 19.441406 15.628906 19.535156 15.722656 C 19.632812 15.816406 19.632812 15.96875 19.535156 16.0625 L 18.027344 17.554688 L 19.535156 19.042969 C 19.632812 19.136719 19.632812 19.289062 19.535156 19.386719 C 19.488281 19.433594 19.425781 19.457031 19.363281 19.457031 " fill-opacity="1" fill-rule="nonzero"></path></g><g clip-path="url(#aae53919d4)"><path fill="#ffffff" d="M 23.359375 19.457031 C 23.296875 19.457031 23.234375 19.433594 23.1875 19.386719 C 23.089844 19.289062 23.089844 19.136719 23.1875 19.042969 L 24.695312 17.554688 L 23.1875 16.0625 C 23.089844 15.96875 23.089844 15.816406 23.1875 15.722656 C 23.28125 15.628906 23.4375 15.628906 23.53125 15.722656 L 25.382812 17.554688 L 23.53125 19.386719 C 23.484375 19.433594 23.421875 19.457031 23.359375 19.457031 " fill-opacity="1" fill-rule="nonzero"></path></g><g clip-path="url(#461fbf5a38)"><path fill="#ffffff" d="M 20.269531 20.835938 C 20.238281 20.835938 20.207031 20.832031 20.175781 20.820312 C 20.054688 20.769531 19.992188 20.628906 20.042969 20.503906 L 22.515625 14.421875 C 22.566406 14.300781 22.707031 14.238281 22.832031 14.289062 C 22.957031 14.339844 23.019531 14.480469 22.96875 14.601562 L 20.496094 20.683594 C 20.457031 20.78125 20.363281 20.835938 20.269531 20.835938 " fill-opacity="1" fill-rule="nonzero"></path></g></svg>