<svg xmlns="http://www.w3.org/2000/svg" xmlns:xlink="http://www.w3.org/1999/xlink" width="43" viewBox="0 0 32.25 32.249998" height="43" preserveAspectRatio="xMidYMid meet"><defs><clipPath id="46a56268a2"><path d="M 0 0 L 31.515625 0 L 31.515625 31.515625 L 0 31.515625 Z M 0 0 " clip-rule="nonzero"></path></clipPath><clipPath id="e78d4c63f4"><path d="M 4 5.304688 L 27 5.304688 L 27 26.5625 L 4 26.5625 Z M 4 5.304688 " clip-rule="nonzero"></path></clipPath></defs><g clip-path="url(#46a56268a2)"><path fill="#ffffff" d="M 0 0 L 32.25 0 L 32.25 466.890625 L 0 466.890625 Z M 0 0 " fill-opacity="1" fill-rule="nonzero"></path><path fill="#ffffff" d="M 0 0 L 31.515625 0 L 31.515625 31.515625 L 0 31.515625 Z M 0 0 " fill-opacity="1" fill-rule="nonzero"></path><path fill="#293462" d="M 0 0 L 31.515625 0 L 31.515625 31.515625 L 0 31.515625 Z M 0 0 " fill-opacity="1" fill-rule="nonzero"></path></g><g clip-path="url(#e78d4c63f4)"><path fill="#ffffff" d="M 21.246094 23.546875 L 19.933594 22.210938 C 19.425781 22.46875 18.878906 22.648438 18.316406 22.730469 C 16.820312 23.710938 15.09375 24.214844 13.316406 24.214844 C 8.171875 24.214844 4 19.894531 4.039062 14.738281 C 4.082031 9.613281 8.105469 5.304688 13.304688 5.304688 C 15.75 5.304688 18.0625 6.257812 19.800781 8.003906 C 21.511719 9.707031 22.5 11.984375 22.582031 14.414062 C 22.96875 15.203125 23.15625 16.074219 23.15625 16.976562 C 23.15625 17.863281 22.96875 18.734375 22.59375 19.511719 L 26.203125 23.191406 C 27.445312 24.460938 26.777344 26.5625 25.066406 26.5625 C 24.53125 26.5625 23.984375 26.34375 23.558594 25.90625 Z M 8.945312 21.84375 C 8.492188 21.269531 8.089844 20.601562 7.769531 19.878906 C 7.476562 19.90625 7.183594 19.933594 6.902344 19.960938 C 7.476562 20.699219 8.15625 21.339844 8.945312 21.84375 Z M 6.21875 18.953125 C 6.582031 18.898438 6.96875 18.855469 7.355469 18.816406 C 6.996094 17.738281 6.78125 16.554688 6.726562 15.3125 L 5.136719 15.3125 C 5.21875 16.621094 5.605469 17.863281 6.21875 18.953125 Z M 5.136719 14.222656 L 6.726562 14.222656 C 6.78125 12.96875 6.996094 11.78125 7.355469 10.703125 C 6.96875 10.664062 6.582031 10.621094 6.21875 10.566406 C 5.605469 11.660156 5.21875 12.898438 5.136719 14.222656 Z M 6.902344 9.558594 C 7.183594 9.585938 7.476562 9.613281 7.769531 9.640625 C 8.089844 8.917969 8.492188 8.261719 8.945312 7.691406 C 8.15625 8.183594 7.476562 8.824219 6.902344 9.558594 Z M 17.753906 7.746094 C 18.183594 8.289062 18.558594 8.929688 18.878906 9.640625 C 19.171875 9.613281 19.453125 9.585938 19.71875 9.558594 C 19.171875 8.851562 18.503906 8.234375 17.753906 7.746094 Z M 20.402344 10.566406 C 20.042969 10.621094 19.667969 10.664062 19.28125 10.703125 C 19.371094 10.976562 19.453125 11.261719 19.535156 11.550781 C 20.160156 11.792969 20.738281 12.164062 21.246094 12.625 C 21.058594 11.902344 20.777344 11.207031 20.402344 10.566406 Z M 21.59375 14.820312 C 20.9375 13.636719 20.136719 12.941406 18.878906 12.460938 C 18.144531 12.191406 17.3125 12.203125 16.550781 12.328125 C 15.214844 12.542969 13.8125 13.648438 13.25 14.957031 C 12.460938 16.839844 12.742188 18.871094 14.171875 20.316406 C 15.242188 21.40625 16.621094 21.816406 18.089844 21.664062 C 19.414062 21.515625 20.816406 20.5625 21.457031 19.363281 C 22.21875 17.917969 22.328125 16.308594 21.59375 14.820312 Z M 10.882812 22.28125 C 10.511719 21.558594 10.203125 20.683594 9.976562 19.714844 C 9.613281 19.742188 9.253906 19.757812 8.894531 19.785156 C 9.414062 20.835938 10.097656 21.691406 10.882812 22.28125 Z M 9.75 18.640625 C 9.5625 17.574219 9.453125 16.445312 9.425781 15.3125 L 7.796875 15.3125 C 7.851562 16.539062 8.078125 17.699219 8.453125 18.722656 C 8.867188 18.695312 9.308594 18.667969 9.75 18.640625 Z M 9.425781 14.222656 C 9.453125 13.089844 9.5625 11.945312 9.75 10.882812 C 9.308594 10.855469 8.867188 10.828125 8.453125 10.800781 C 8.078125 11.820312 7.851562 12.980469 7.796875 14.222656 Z M 9.976562 9.804688 C 10.214844 8.835938 10.511719 7.964844 10.882812 7.242188 C 10.097656 7.828125 9.414062 8.6875 8.894531 9.734375 C 9.253906 9.761719 9.613281 9.777344 9.976562 9.804688 Z M 15.75 7.242188 C 16.109375 7.9375 16.417969 8.796875 16.660156 9.804688 C 17.035156 9.777344 17.382812 9.761719 17.742188 9.734375 C 17.207031 8.671875 16.527344 7.828125 15.75 7.242188 Z M 16.886719 10.882812 C 16.898438 10.976562 16.925781 11.070312 16.941406 11.179688 C 17.394531 11.140625 17.875 11.152344 18.332031 11.222656 C 18.277344 11.070312 18.238281 10.9375 18.183594 10.800781 C 17.769531 10.828125 17.328125 10.855469 16.886719 10.882812 Z M 15.882812 11.371094 C 15.855469 11.222656 15.832031 11.070312 15.804688 10.9375 C 15.164062 10.949219 14.507812 10.964844 13.851562 10.976562 L 13.851562 12.460938 C 14.453125 11.957031 15.148438 11.589844 15.882812 11.371094 Z M 15.578125 9.84375 C 15.121094 8.085938 14.46875 6.980469 13.851562 6.574219 L 13.851562 9.886719 C 14.425781 9.871094 15 9.871094 15.578125 9.84375 Z M 12.78125 6.574219 C 12.128906 6.996094 11.5 8.15625 11.058594 9.84375 C 11.621094 9.871094 12.195312 9.871094 12.78125 9.886719 Z M 10.816406 10.9375 C 10.644531 11.902344 10.523438 13.007812 10.496094 14.222656 L 12.421875 14.222656 C 12.527344 14.015625 12.648438 13.8125 12.78125 13.621094 L 12.78125 10.976562 C 12.113281 10.964844 11.460938 10.949219 10.816406 10.9375 Z M 10.496094 15.3125 C 10.523438 16.511719 10.644531 17.617188 10.816406 18.597656 C 11.191406 18.585938 11.578125 18.570312 11.953125 18.558594 C 11.671875 17.519531 11.671875 16.347656 11.980469 15.3125 Z M 11.058594 19.675781 C 11.5 21.367188 12.128906 22.523438 12.78125 22.949219 L 12.78125 20.316406 C 12.636719 20.097656 12.503906 19.878906 12.382812 19.648438 C 11.925781 19.648438 11.484375 19.660156 11.058594 19.675781 Z M 13.851562 22.949219 C 14.121094 22.769531 14.386719 22.457031 14.640625 22.046875 C 14.359375 21.882812 14.105469 21.691406 13.851562 21.488281 Z M 17.449219 21.394531 C 13.625 21.394531 11.648438 16.636719 14.386719 13.839844 C 16.070312 12.121094 18.839844 12.121094 20.523438 13.839844 C 23.261719 16.636719 21.285156 21.394531 17.449219 21.394531 Z M 17.449219 13.636719 C 14.601562 13.636719 13.0625 17.207031 15.148438 19.335938 C 16.417969 20.628906 18.492188 20.628906 19.761719 19.335938 C 21.847656 17.207031 20.308594 13.636719 17.449219 13.636719 Z M 20.882812 21.640625 L 21.632812 22.402344 L 22.769531 21.230469 L 22.019531 20.464844 C 21.699219 20.902344 21.3125 21.296875 20.882812 21.640625 Z M 23.53125 22.007812 L 22.378906 23.164062 L 22.835938 23.628906 L 23.984375 22.46875 Z M 23.597656 24.40625 L 24.304688 25.128906 C 24.691406 25.523438 25.269531 25.578125 25.589844 25.265625 C 25.894531 24.953125 25.828125 24.351562 25.453125 23.96875 L 24.734375 23.234375 Z M 23.597656 24.40625 " fill-opacity="1" fill-rule="evenodd"></path></g></svg>