<svg xmlns="http://www.w3.org/2000/svg" xmlns:xlink="http://www.w3.org/1999/xlink" width="43" viewBox="0 0 32.25 32.249998" height="43" preserveAspectRatio="xMidYMid meet"><defs><clipPath id="4ce0f467f0"><path d="M 0 0 L 31.515625 0 L 31.515625 31.515625 L 0 31.515625 Z M 0 0 " clip-rule="nonzero"></path></clipPath><clipPath id="53fcc33501"><path d="M 10 4.582031 L 22 4.582031 L 22 13 L 10 13 Z M 10 4.582031 " clip-rule="nonzero"></path></clipPath><clipPath id="936e812359"><path d="M 4.582031 9 L 27.300781 9 L 27.300781 27.300781 L 4.582031 27.300781 Z M 4.582031 9 " clip-rule="nonzero"></path></clipPath></defs><g clip-path="url(#4ce0f467f0)"><path fill="#ffffff" d="M 0 0 L 31.515625 0 L 31.515625 31.515625 L 0 31.515625 Z M 0 0 " fill-opacity="1" fill-rule="nonzero"></path><path fill="#6572a8" d="M 0 0 L 31.515625 0 L 31.515625 31.515625 L 0 31.515625 Z M 0 0 " fill-opacity="1" fill-rule="nonzero"></path></g><path fill="#ffffff" d="M 13.289062 13.289062 L 9.882812 13.289062 L 9.882812 14.046875 L 13.289062 14.046875 L 13.289062 13.289062 " fill-opacity="1" fill-rule="nonzero"></path><path fill="#ffffff" d="M 9.882812 15.5625 L 12.15625 15.5625 L 12.15625 14.804688 L 9.882812 14.804688 L 9.882812 15.5625 " fill-opacity="1" fill-rule="nonzero"></path><path fill="#ffffff" d="M 15.5625 14.804688 L 12.914062 14.804688 L 12.914062 15.5625 L 15.5625 15.5625 L 15.5625 14.804688 " fill-opacity="1" fill-rule="nonzero"></path><path fill="#ffffff" d="M 9.882812 17.078125 L 10.640625 17.078125 L 10.640625 16.320312 L 9.882812 16.320312 L 9.882812 17.078125 " fill-opacity="1" fill-rule="nonzero"></path><path fill="#ffffff" d="M 15.5625 16.320312 L 11.398438 16.320312 L 11.398438 17.078125 L 15.5625 17.078125 L 15.5625 16.320312 " fill-opacity="1" fill-rule="nonzero"></path><path fill="#ffffff" d="M 12.15625 17.835938 L 9.882812 17.835938 L 9.882812 18.59375 L 12.15625 18.59375 L 12.15625 17.835938 " fill-opacity="1" fill-rule="nonzero"></path><path fill="#ffffff" d="M 15.5625 17.835938 L 12.914062 17.835938 L 12.914062 18.59375 L 15.5625 18.59375 L 15.5625 17.835938 " fill-opacity="1" fill-rule="nonzero"></path><path fill="#ffffff" d="M 9.882812 20.105469 L 11.398438 20.105469 L 11.398438 19.351562 L 9.882812 19.351562 L 9.882812 20.105469 " fill-opacity="1" fill-rule="nonzero"></path><path fill="#ffffff" d="M 15.5625 19.351562 L 12.15625 19.351562 L 12.15625 20.105469 L 15.5625 20.105469 L 15.5625 19.351562 " fill-opacity="1" fill-rule="nonzero"></path><path fill="#ffffff" d="M 18.59375 16.320312 L 16.320312 16.320312 L 16.320312 17.078125 L 18.59375 17.078125 L 18.59375 16.320312 " fill-opacity="1" fill-rule="nonzero"></path><path fill="#ffffff" d="M 16.320312 20.105469 L 18.59375 20.105469 L 18.59375 19.351562 L 16.320312 19.351562 L 16.320312 20.105469 " fill-opacity="1" fill-rule="nonzero"></path><path fill="#ffffff" d="M 9.125 14.804688 L 8.367188 14.804688 L 8.367188 15.5625 L 9.125 15.5625 L 9.125 14.804688 " fill-opacity="1" fill-rule="nonzero"></path><path fill="#ffffff" d="M 9.125 16.320312 L 8.367188 16.320312 L 8.367188 17.078125 L 9.125 17.078125 L 9.125 16.320312 " fill-opacity="1" fill-rule="nonzero"></path><path fill="#ffffff" d="M 9.125 17.835938 L 8.367188 17.835938 L 8.367188 18.59375 L 9.125 18.59375 L 9.125 17.835938 " fill-opacity="1" fill-rule="nonzero"></path><path fill="#ffffff" d="M 8.367188 20.105469 L 9.125 20.105469 L 9.125 19.351562 L 8.367188 19.351562 L 8.367188 20.105469 " fill-opacity="1" fill-rule="nonzero"></path><path fill="#ffffff" d="M 9.125 13.289062 L 8.367188 13.289062 L 8.367188 14.046875 L 9.125 14.046875 L 9.125 13.289062 " fill-opacity="1" fill-rule="nonzero"></path><path fill="#ffffff" d="M 22.757812 15.5625 L 23.515625 15.5625 L 23.515625 14.804688 L 22.757812 14.804688 L 22.757812 15.5625 " fill-opacity="1" fill-rule="nonzero"></path><path fill="#ffffff" d="M 22.757812 17.078125 L 23.515625 17.078125 L 23.515625 16.320312 L 22.757812 16.320312 L 22.757812 17.078125 " fill-opacity="1" fill-rule="nonzero"></path><path fill="#ffffff" d="M 22.757812 18.59375 L 23.515625 18.59375 L 23.515625 17.835938 L 22.757812 17.835938 L 22.757812 18.59375 " fill-opacity="1" fill-rule="nonzero"></path><path fill="#ffffff" d="M 22.757812 20.105469 L 23.515625 20.105469 L 23.515625 19.351562 L 22.757812 19.351562 L 22.757812 20.105469 " fill-opacity="1" fill-rule="nonzero"></path><path fill="#ffffff" d="M 23.515625 13.289062 L 22.757812 13.289062 L 22.757812 14.046875 L 23.515625 14.046875 L 23.515625 13.289062 " fill-opacity="1" fill-rule="nonzero"></path><g clip-path="url(#53fcc33501)"><path fill="#ffffff" d="M 20.863281 11.398438 L 11.019531 11.398438 L 11.019531 5.339844 L 20.863281 5.339844 Z M 21.621094 11.777344 L 21.621094 4.960938 C 21.621094 4.75 21.453125 4.582031 21.242188 4.582031 L 10.640625 4.582031 C 10.429688 4.582031 10.261719 4.75 10.261719 4.960938 L 10.261719 11.777344 C 10.261719 11.984375 10.429688 12.15625 10.640625 12.15625 L 21.242188 12.15625 C 21.453125 12.15625 21.621094 11.984375 21.621094 11.777344 " fill-opacity="1" fill-rule="nonzero"></path></g><path fill="#ffffff" d="M 13.402344 10.152344 L 13.9375 9.613281 L 12.691406 8.367188 L 13.9375 7.121094 L 13.402344 6.585938 L 11.886719 8.101562 C 11.738281 8.25 11.738281 8.488281 11.886719 8.636719 L 13.402344 10.152344 " fill-opacity="1" fill-rule="nonzero"></path><path fill="#ffffff" d="M 18.480469 10.152344 L 19.996094 8.636719 C 20.144531 8.488281 20.144531 8.25 19.996094 8.101562 L 18.480469 6.585938 L 17.945312 7.121094 L 19.191406 8.367188 L 17.945312 9.613281 L 18.480469 10.152344 " fill-opacity="1" fill-rule="nonzero"></path><path fill="#ffffff" d="M 17.773438 6.304688 L 17.140625 5.886719 L 14.113281 10.429688 L 14.742188 10.851562 L 17.773438 6.304688 " fill-opacity="1" fill-rule="nonzero"></path><g clip-path="url(#936e812359)"><path fill="#ffffff" d="M 26.546875 22.378906 C 26.546875 23.007812 26.035156 23.515625 25.410156 23.515625 L 6.472656 23.515625 C 5.847656 23.515625 5.339844 23.007812 5.339844 22.378906 L 5.339844 22 L 26.546875 22 Z M 18.59375 26.546875 L 13.289062 26.546875 L 13.289062 24.273438 L 18.59375 24.273438 Z M 25.410156 9.125 L 22.378906 9.125 L 22.378906 9.882812 L 25.410156 9.882812 C 26.035156 9.882812 26.546875 10.390625 26.546875 11.019531 L 26.546875 11.398438 L 22.378906 11.398438 L 22.378906 12.15625 L 26.546875 12.15625 L 26.546875 21.242188 L 5.339844 21.242188 L 5.339844 12.15625 L 9.503906 12.15625 L 9.503906 11.398438 L 5.339844 11.398438 L 5.339844 11.019531 C 5.339844 10.390625 5.847656 9.882812 6.472656 9.882812 L 9.503906 9.882812 L 9.503906 9.125 L 6.472656 9.125 C 5.429688 9.125 4.582031 9.972656 4.582031 11.019531 L 4.582031 22.378906 C 4.582031 23.425781 5.429688 24.273438 6.472656 24.273438 L 12.535156 24.273438 L 12.535156 26.546875 L 10.261719 26.546875 L 10.261719 27.300781 L 21.621094 27.300781 L 21.621094 26.546875 L 19.351562 26.546875 L 19.351562 24.273438 L 25.410156 24.273438 C 26.453125 24.273438 27.300781 23.425781 27.300781 22.378906 L 27.300781 11.019531 C 27.300781 9.972656 26.453125 9.125 25.410156 9.125 " fill-opacity="1" fill-rule="nonzero"></path></g><path fill="#ffffff" d="M 15.710938 22.867188 C 15.710938 23.054688 15.863281 23.207031 16.050781 23.207031 C 16.238281 23.207031 16.390625 23.054688 16.390625 22.867188 C 16.390625 22.679688 16.238281 22.527344 16.050781 22.527344 C 15.863281 22.527344 15.710938 22.679688 15.710938 22.867188 " fill-opacity="1" fill-rule="nonzero"></path></svg>