<svg xmlns="http://www.w3.org/2000/svg" xmlns:xlink="http://www.w3.org/1999/xlink" width="43" viewBox="0 0 32.25 32.249998" height="43" preserveAspectRatio="xMidYMid meet"><defs><clipPath id="73701088a8"><path d="M 0 0 L 31.515625 0 L 31.515625 31.515625 L 0 31.515625 Z M 0 0 " clip-rule="nonzero"></path></clipPath><clipPath id="36125ee066"><path d="M 7 22 L 25 22 L 25 26.902344 L 7 26.902344 Z M 7 22 " clip-rule="nonzero"></path></clipPath><clipPath id="2202fde2dc"><path d="M 4.535156 7 L 27.257812 7 L 27.257812 22 L 4.535156 22 Z M 4.535156 7 " clip-rule="nonzero"></path></clipPath><clipPath id="4eb9bbcda6"><path d="M 7 4.914062 L 25 4.914062 L 25 18 L 7 18 Z M 7 4.914062 " clip-rule="nonzero"></path></clipPath></defs><g clip-path="url(#73701088a8)"><path fill="#ffffff" d="M 0 0 L 31.515625 0 L 31.515625 31.515625 L 0 31.515625 Z M 0 0 " fill-opacity="1" fill-rule="nonzero"></path><path fill="#b8523a" d="M 0 0 L 31.515625 0 L 31.515625 31.515625 L 0 31.515625 Z M 0 0 " fill-opacity="1" fill-rule="nonzero"></path></g><g clip-path="url(#36125ee066)"><path fill="#ffffff" d="M 23.46875 24.628906 L 19.613281 24.628906 L 19.160156 22.355469 L 12.632812 22.355469 L 12.175781 24.628906 L 8.324219 24.628906 C 8.175781 24.628906 8.03125 24.65625 7.890625 24.714844 C 7.753906 24.773438 7.628906 24.855469 7.523438 24.960938 C 7.417969 25.070312 7.335938 25.191406 7.277344 25.332031 C 7.21875 25.46875 7.191406 25.617188 7.191406 25.765625 C 7.191406 25.917969 7.21875 26.0625 7.277344 26.203125 C 7.335938 26.339844 7.417969 26.464844 7.523438 26.570312 C 7.628906 26.675781 7.753906 26.757812 7.890625 26.816406 C 8.03125 26.875 8.175781 26.902344 8.324219 26.902344 L 23.46875 26.902344 C 23.617188 26.902344 23.761719 26.875 23.902344 26.816406 C 24.042969 26.757812 24.164062 26.675781 24.269531 26.570312 C 24.378906 26.464844 24.460938 26.339844 24.515625 26.203125 C 24.574219 26.0625 24.605469 25.917969 24.605469 25.765625 C 24.605469 25.617188 24.574219 25.46875 24.515625 25.332031 C 24.460938 25.191406 24.378906 25.070312 24.269531 24.960938 C 24.164062 24.855469 24.042969 24.773438 23.902344 24.714844 C 23.761719 24.65625 23.617188 24.628906 23.46875 24.628906 Z M 23.46875 26.144531 L 8.324219 26.144531 C 8.222656 26.144531 8.132812 26.109375 8.058594 26.035156 C 7.984375 25.960938 7.945312 25.871094 7.945312 25.765625 C 7.945312 25.660156 7.984375 25.570312 8.058594 25.496094 C 8.132812 25.425781 8.222656 25.386719 8.324219 25.386719 L 23.46875 25.386719 C 23.574219 25.386719 23.660156 25.425781 23.734375 25.496094 C 23.808594 25.570312 23.847656 25.660156 23.847656 25.765625 C 23.847656 25.871094 23.808594 25.960938 23.734375 26.035156 C 23.660156 26.109375 23.574219 26.144531 23.46875 26.144531 Z M 23.46875 26.144531 " fill-opacity="1" fill-rule="nonzero"></path></g><g clip-path="url(#2202fde2dc)"><path fill="#ffffff" d="M 25.359375 7.949219 L 25.359375 16.667969 C 25.359375 16.917969 25.3125 17.160156 25.214844 17.394531 C 25.121094 17.625 24.984375 17.828125 24.804688 18.007812 C 24.628906 18.183594 24.425781 18.324219 24.191406 18.417969 C 23.960938 18.515625 23.71875 18.5625 23.46875 18.5625 L 22.039062 18.5625 C 22.191406 18.730469 22.28125 18.925781 22.316406 19.144531 C 22.351562 19.367188 22.324219 19.578125 22.230469 19.785156 C 22.140625 19.988281 22 20.152344 21.8125 20.273438 C 21.625 20.398438 21.421875 20.457031 21.195312 20.457031 L 10.597656 20.457031 C 10.375 20.457031 10.167969 20.398438 9.980469 20.273438 C 9.792969 20.152344 9.652344 19.988281 9.5625 19.785156 C 9.472656 19.578125 9.441406 19.367188 9.476562 19.144531 C 9.511719 18.925781 9.605469 18.730469 9.753906 18.5625 L 8.324219 18.5625 C 8.074219 18.5625 7.832031 18.515625 7.601562 18.417969 C 7.371094 18.324219 7.164062 18.183594 6.988281 18.007812 C 6.808594 17.828125 6.671875 17.625 6.578125 17.394531 C 6.480469 17.160156 6.433594 16.917969 6.433594 16.667969 L 6.433594 7.949219 C 6.183594 7.949219 5.941406 7.996094 5.707031 8.09375 C 5.476562 8.1875 5.273438 8.324219 5.09375 8.503906 C 4.917969 8.679688 4.78125 8.886719 4.683594 9.117188 C 4.589844 9.351562 4.539062 9.59375 4.539062 9.84375 L 4.539062 19.699219 C 4.539062 19.953125 4.589844 20.195312 4.683594 20.425781 C 4.78125 20.65625 4.917969 20.863281 5.09375 21.039062 C 5.273438 21.21875 5.476562 21.355469 5.707031 21.453125 C 5.941406 21.546875 6.183594 21.597656 6.433594 21.597656 L 25.359375 21.597656 C 25.613281 21.597656 25.851562 21.546875 26.085938 21.453125 C 26.316406 21.355469 26.523438 21.21875 26.699219 21.039062 C 26.875 20.863281 27.011719 20.65625 27.109375 20.425781 C 27.207031 20.195312 27.253906 19.953125 27.253906 19.699219 L 27.253906 9.84375 C 27.253906 9.59375 27.207031 9.351562 27.109375 9.117188 C 27.011719 8.886719 26.875 8.679688 26.699219 8.503906 C 26.523438 8.324219 26.316406 8.1875 26.085938 8.09375 C 25.851562 7.996094 25.613281 7.949219 25.359375 7.949219 Z M 25.359375 7.949219 " fill-opacity="1" fill-rule="nonzero"></path></g><path fill="#ffffff" d="M 16.273438 12.496094 L 15.140625 12.496094 L 15.140625 14.773438 L 16.273438 14.773438 C 16.378906 14.773438 16.46875 14.734375 16.542969 14.660156 C 16.617188 14.585938 16.652344 14.496094 16.652344 14.394531 L 16.652344 12.875 C 16.652344 12.773438 16.617188 12.683594 16.542969 12.609375 C 16.46875 12.535156 16.378906 12.496094 16.273438 12.496094 Z M 16.273438 12.496094 " fill-opacity="1" fill-rule="nonzero"></path><g clip-path="url(#4eb9bbcda6)"><path fill="#ffffff" d="M 8.324219 17.804688 L 23.46875 17.804688 C 23.617188 17.804688 23.761719 17.773438 23.902344 17.71875 C 24.039062 17.660156 24.164062 17.578125 24.269531 17.46875 C 24.375 17.363281 24.457031 17.242188 24.515625 17.101562 C 24.574219 16.964844 24.601562 16.816406 24.605469 16.667969 L 24.605469 6.050781 C 24.601562 5.902344 24.574219 5.757812 24.515625 5.617188 C 24.457031 5.476562 24.375 5.355469 24.269531 5.25 C 24.164062 5.140625 24.039062 5.058594 23.902344 5.003906 C 23.761719 4.945312 23.617188 4.914062 23.46875 4.914062 L 8.324219 4.914062 C 8.175781 4.914062 8.03125 4.945312 7.890625 5.003906 C 7.753906 5.058594 7.628906 5.140625 7.523438 5.25 C 7.417969 5.355469 7.335938 5.476562 7.277344 5.617188 C 7.21875 5.757812 7.191406 5.902344 7.191406 6.050781 L 7.191406 16.667969 C 7.191406 16.816406 7.21875 16.964844 7.277344 17.101562 C 7.335938 17.242188 7.417969 17.363281 7.523438 17.46875 C 7.628906 17.578125 7.753906 17.660156 7.890625 17.71875 C 8.03125 17.773438 8.175781 17.804688 8.324219 17.804688 Z M 17.410156 14.394531 C 17.410156 14.542969 17.382812 14.6875 17.324219 14.828125 C 17.265625 14.964844 17.183594 15.089844 17.078125 15.195312 C 16.972656 15.300781 16.847656 15.382812 16.710938 15.441406 C 16.570312 15.5 16.425781 15.53125 16.273438 15.53125 L 14.761719 15.53125 C 14.65625 15.53125 14.566406 15.492188 14.492188 15.417969 C 14.417969 15.34375 14.382812 15.253906 14.382812 15.152344 L 14.382812 12.117188 C 14.382812 12.011719 14.417969 11.925781 14.492188 11.851562 C 14.566406 11.777344 14.65625 11.738281 14.761719 11.738281 L 16.273438 11.738281 C 16.425781 11.738281 16.570312 11.769531 16.710938 11.828125 C 16.847656 11.882812 16.972656 11.964844 17.078125 12.074219 C 17.183594 12.179688 17.265625 12.300781 17.324219 12.441406 C 17.382812 12.582031 17.410156 12.726562 17.410156 12.875 Z M 19.304688 13.253906 L 20.0625 13.253906 C 20.210938 13.253906 20.355469 13.285156 20.496094 13.34375 C 20.632812 13.398438 20.757812 13.480469 20.863281 13.589844 C 20.96875 13.695312 21.050781 13.816406 21.109375 13.957031 C 21.167969 14.097656 21.195312 14.242188 21.195312 14.394531 C 21.195312 14.542969 21.167969 14.6875 21.109375 14.828125 C 21.050781 14.96875 20.96875 15.089844 20.863281 15.195312 C 20.757812 15.304688 20.632812 15.386719 20.496094 15.445312 C 20.355469 15.5 20.210938 15.53125 20.0625 15.53125 L 18.546875 15.53125 C 18.441406 15.53125 18.351562 15.492188 18.277344 15.417969 C 18.207031 15.34375 18.167969 15.253906 18.167969 15.152344 C 18.167969 15.046875 18.207031 14.957031 18.277344 14.882812 C 18.351562 14.808594 18.441406 14.773438 18.546875 14.773438 L 20.0625 14.773438 C 20.164062 14.773438 20.253906 14.734375 20.328125 14.660156 C 20.402344 14.585938 20.441406 14.496094 20.441406 14.394531 C 20.441406 14.289062 20.402344 14.199219 20.328125 14.125 C 20.253906 14.050781 20.164062 14.011719 20.0625 14.011719 L 19.304688 14.011719 C 19.152344 14.011719 19.007812 13.984375 18.871094 13.925781 C 18.730469 13.871094 18.605469 13.785156 18.5 13.679688 C 18.394531 13.574219 18.3125 13.449219 18.253906 13.3125 C 18.195312 13.171875 18.167969 13.027344 18.167969 12.875 C 18.167969 12.726562 18.195312 12.582031 18.253906 12.441406 C 18.3125 12.300781 18.394531 12.179688 18.5 12.070312 C 18.605469 11.964844 18.730469 11.882812 18.871094 11.824219 C 19.007812 11.769531 19.152344 11.738281 19.304688 11.738281 L 20.816406 11.738281 C 20.921875 11.738281 21.011719 11.777344 21.085938 11.851562 C 21.160156 11.925781 21.195312 12.011719 21.195312 12.117188 C 21.195312 12.222656 21.160156 12.3125 21.085938 12.386719 C 21.011719 12.460938 20.921875 12.496094 20.816406 12.496094 L 19.304688 12.496094 C 19.199219 12.496094 19.109375 12.535156 19.035156 12.609375 C 18.960938 12.683594 18.925781 12.773438 18.925781 12.875 C 18.925781 12.980469 18.960938 13.070312 19.035156 13.144531 C 19.109375 13.21875 19.199219 13.253906 19.304688 13.253906 Z M 14.382812 6.808594 L 21.953125 6.808594 C 22.105469 6.808594 22.25 6.839844 22.386719 6.898438 C 22.527344 6.953125 22.648438 7.035156 22.757812 7.144531 C 22.863281 7.25 22.945312 7.375 23.003906 7.511719 C 23.058594 7.652344 23.089844 7.796875 23.089844 7.949219 C 23.089844 8.097656 23.058594 8.242188 23.003906 8.382812 C 22.945312 8.523438 22.863281 8.644531 22.757812 8.75 C 22.648438 8.859375 22.527344 8.941406 22.386719 9 C 22.25 9.054688 22.105469 9.085938 21.953125 9.085938 L 14.382812 9.085938 C 14.230469 9.085938 14.085938 9.054688 13.949219 9 C 13.808594 8.941406 13.6875 8.859375 13.578125 8.75 C 13.472656 8.644531 13.390625 8.523438 13.332031 8.382812 C 13.277344 8.242188 13.246094 8.097656 13.246094 7.949219 C 13.246094 7.796875 13.277344 7.652344 13.332031 7.511719 C 13.390625 7.375 13.472656 7.25 13.578125 7.144531 C 13.6875 7.035156 13.808594 6.953125 13.949219 6.898438 C 14.085938 6.839844 14.230469 6.808594 14.382812 6.808594 Z M 11.734375 7.191406 C 11.941406 7.191406 12.121094 7.261719 12.269531 7.410156 C 12.414062 7.558594 12.488281 7.738281 12.488281 7.949219 C 12.488281 8.15625 12.414062 8.335938 12.269531 8.484375 C 12.121094 8.632812 11.941406 8.707031 11.734375 8.707031 C 11.523438 8.707031 11.34375 8.632812 11.199219 8.484375 C 11.050781 8.335938 10.976562 8.15625 10.976562 7.949219 C 10.976562 7.738281 11.050781 7.558594 11.199219 7.410156 C 11.34375 7.261719 11.523438 7.191406 11.734375 7.191406 Z M 10.597656 12.875 C 10.597656 12.726562 10.625 12.582031 10.683594 12.441406 C 10.742188 12.300781 10.824219 12.179688 10.929688 12.074219 C 11.035156 11.964844 11.160156 11.882812 11.296875 11.828125 C 11.4375 11.769531 11.582031 11.738281 11.734375 11.738281 L 12.488281 11.738281 C 12.640625 11.738281 12.785156 11.769531 12.925781 11.828125 C 13.0625 11.882812 13.183594 11.964844 13.292969 12.074219 C 13.398438 12.179688 13.480469 12.300781 13.539062 12.441406 C 13.597656 12.582031 13.625 12.726562 13.625 12.875 L 13.625 15.152344 C 13.625 15.253906 13.589844 15.34375 13.515625 15.417969 C 13.441406 15.492188 13.351562 15.53125 13.246094 15.53125 C 13.140625 15.53125 13.054688 15.492188 12.980469 15.417969 C 12.90625 15.34375 12.867188 15.253906 12.867188 15.152344 L 12.867188 14.773438 L 11.355469 14.773438 L 11.355469 15.152344 C 11.355469 15.253906 11.316406 15.34375 11.242188 15.417969 C 11.167969 15.492188 11.082031 15.53125 10.976562 15.53125 C 10.871094 15.53125 10.78125 15.492188 10.707031 15.417969 C 10.632812 15.34375 10.597656 15.253906 10.597656 15.152344 Z M 9.460938 7.191406 C 9.671875 7.191406 9.847656 7.261719 9.996094 7.410156 C 10.144531 7.558594 10.21875 7.738281 10.21875 7.949219 C 10.21875 8.15625 10.144531 8.335938 9.996094 8.484375 C 9.847656 8.632812 9.671875 8.707031 9.460938 8.707031 C 9.253906 8.707031 9.074219 8.632812 8.925781 8.484375 C 8.777344 8.335938 8.703125 8.15625 8.703125 7.949219 C 8.703125 7.738281 8.777344 7.558594 8.925781 7.410156 C 9.074219 7.261719 9.253906 7.191406 9.460938 7.191406 Z M 9.460938 7.191406 " fill-opacity="1" fill-rule="nonzero"></path></g><path fill="#ffffff" d="M 12.867188 12.875 C 12.867188 12.773438 12.832031 12.683594 12.757812 12.609375 C 12.683594 12.535156 12.59375 12.496094 12.488281 12.496094 L 11.734375 12.496094 C 11.628906 12.496094 11.539062 12.535156 11.464844 12.609375 C 11.390625 12.683594 11.355469 12.773438 11.355469 12.875 L 11.355469 14.011719 L 12.867188 14.011719 Z M 12.867188 12.875 " fill-opacity="1" fill-rule="nonzero"></path><path fill="#ffffff" d="M 10.597656 18.941406 C 10.492188 18.941406 10.402344 18.980469 10.328125 19.054688 C 10.253906 19.128906 10.21875 19.214844 10.21875 19.320312 C 10.21875 19.425781 10.253906 19.515625 10.328125 19.589844 C 10.402344 19.664062 10.492188 19.699219 10.597656 19.699219 L 21.195312 19.699219 C 21.300781 19.699219 21.390625 19.664062 21.464844 19.589844 C 21.539062 19.515625 21.574219 19.425781 21.574219 19.320312 C 21.574219 19.214844 21.539062 19.128906 21.464844 19.054688 C 21.390625 18.980469 21.300781 18.941406 21.195312 18.941406 Z M 10.597656 18.941406 " fill-opacity="1" fill-rule="nonzero"></path></svg>