<svg xmlns="http://www.w3.org/2000/svg" xmlns:xlink="http://www.w3.org/1999/xlink" width="43" viewBox="0 0 32.25 32.249998" height="43" preserveAspectRatio="xMidYMid meet"><defs><clipPath id="c176cd0498"><path d="M 0 0 L 31.515625 0 L 31.515625 31.515625 L 0 31.515625 Z M 0 0 " clip-rule="nonzero"></path></clipPath><clipPath id="4f8fee5277"><path d="M 11 4.515625 L 21 4.515625 L 21 14 L 11 14 Z M 11 4.515625 " clip-rule="nonzero"></path></clipPath><clipPath id="d107589ff5"><path d="M 8.855469 14.84375 L 22.78125 14.84375 L 22.78125 27.199219 L 8.855469 27.199219 Z M 8.855469 14.84375 " clip-rule="nonzero"></path></clipPath></defs><g clip-path="url(#c176cd0498)"><path fill="#ffffff" d="M 0 0 L 31.515625 0 L 31.515625 31.515625 L 0 31.515625 Z M 0 0 " fill-opacity="1" fill-rule="nonzero"></path><path fill="#303752" d="M 0 0 L 31.515625 0 L 31.515625 31.515625 L 0 31.515625 Z M 0 0 " fill-opacity="1" fill-rule="nonzero"></path></g><g clip-path="url(#4f8fee5277)"><path fill="#ffffff" d="M 15.859375 13.609375 C 18.359375 13.609375 20.382812 11.585938 20.382812 9.082031 C 20.382812 6.578125 18.359375 4.550781 15.859375 4.550781 C 13.359375 4.550781 11.339844 6.578125 11.339844 9.082031 C 11.339844 11.558594 13.359375 13.609375 15.859375 13.609375 " fill-opacity="1" fill-rule="nonzero"></path></g><g clip-path="url(#d107589ff5)"><path fill="#ffffff" d="M 17.882812 20.832031 C 17.574219 21.261719 17.265625 21.476562 17.023438 21.640625 C 16.765625 21.832031 16.644531 21.90625 16.621094 22.335938 C 16.597656 22.523438 16.453125 22.667969 16.265625 22.667969 L 15.691406 22.667969 C 15.480469 22.667969 15.3125 22.476562 15.335938 22.265625 C 15.40625 21.261719 15.8125 20.90625 16.289062 20.570312 C 16.480469 20.425781 16.667969 20.308594 16.835938 20.070312 C 17.023438 19.808594 17.050781 19.472656 16.882812 19.1875 C 16.789062 18.996094 16.527344 18.640625 15.882812 18.640625 C 15.050781 18.640625 14.789062 19.164062 14.714844 19.566406 C 14.691406 19.738281 14.527344 19.878906 14.359375 19.878906 L 13.789062 19.878906 C 13.574219 19.878906 13.382812 19.6875 13.433594 19.472656 C 13.597656 18.378906 14.382812 17.351562 15.882812 17.351562 C 16.835938 17.351562 17.644531 17.828125 18.046875 18.617188 C 18.429688 19.304688 18.359375 20.164062 17.882812 20.832031 Z M 15.980469 24.957031 C 15.550781 24.957031 15.191406 24.597656 15.191406 24.167969 C 15.191406 23.742188 15.550781 23.382812 15.980469 23.382812 C 16.40625 23.382812 16.765625 23.742188 16.765625 24.167969 C 16.765625 24.597656 16.40625 24.957031 15.980469 24.957031 Z M 22.308594 19.09375 C 22.023438 16.660156 19.976562 14.847656 17.523438 14.847656 L 14.171875 14.847656 C 11.742188 14.847656 9.695312 16.660156 9.386719 19.09375 L 8.859375 25.554688 C 8.816406 26.003906 9.125 26.433594 9.574219 26.53125 C 11.550781 26.957031 13.648438 27.199219 15.835938 27.199219 C 18.023438 27.199219 20.121094 26.957031 22.09375 26.53125 C 22.546875 26.433594 22.832031 26.003906 22.808594 25.554688 L 22.308594 19.09375 " fill-opacity="1" fill-rule="nonzero"></path></g></svg>