<svg xmlns="http://www.w3.org/2000/svg" xmlns:xlink="http://www.w3.org/1999/xlink" width="43" viewBox="0 0 32.25 32.249998" height="43" preserveAspectRatio="xMidYMid meet"><defs><clipPath id="1f616db333"><path d="M 0 0 L 31.515625 0 L 31.515625 31.515625 L 0 31.515625 Z M 0 0 " clip-rule="nonzero"></path></clipPath><clipPath id="11f4abe6bc"><path d="M 5.253906 5.253906 L 26.507812 5.253906 L 26.507812 26.507812 L 5.253906 26.507812 Z M 5.253906 5.253906 " clip-rule="nonzero"></path></clipPath></defs><g clip-path="url(#1f616db333)"><path fill="#ffffff" d="M 0 0 L 31.515625 0 L 31.515625 31.515625 L 0 31.515625 Z M 0 0 " fill-opacity="1" fill-rule="nonzero"></path><path fill="#ff1616" d="M 0 0 L 31.515625 0 L 31.515625 31.515625 L 0 31.515625 Z M 0 0 " fill-opacity="1" fill-rule="nonzero"></path></g><g clip-path="url(#11f4abe6bc)"><path fill="#ffffff" d="M 15.878906 5.253906 C 10.007812 5.253906 5.253906 10.007812 5.253906 15.878906 C 5.253906 21.75 10.007812 26.507812 15.878906 26.507812 C 21.75 26.507812 26.507812 21.75 26.507812 15.878906 C 26.5 10.007812 21.742188 5.253906 15.878906 5.253906 Z M 22 18.851562 C 21.878906 19.632812 21.199219 20.203125 20.40625 20.203125 L 11.34375 20.203125 C 10.550781 20.203125 9.871094 19.632812 9.75 18.851562 C 9.640625 18.125 9.53125 17.113281 9.523438 15.871094 C 9.53125 14.628906 9.632812 13.625 9.75 12.890625 C 9.871094 12.105469 10.550781 11.535156 11.34375 11.535156 L 20.40625 11.535156 C 21.199219 11.535156 21.878906 12.105469 22 12.890625 C 22.109375 13.617188 22.21875 14.628906 22.230469 15.871094 C 22.21875 17.113281 22.109375 18.125 22 18.851562 Z M 22 18.851562 " fill-opacity="1" fill-rule="nonzero"></path></g><path fill="#ffffff" d="M 14.535156 14.148438 L 14.535156 17.601562 L 17.746094 15.878906 Z M 14.535156 14.148438 " fill-opacity="1" fill-rule="nonzero"></path></svg>